<svg width="221" height="58" viewBox="0 0 221 58" fill="none" xmlns="http://www.w3.org/2000/svg">
<rect width="221" height="58" rx="10" fill="#FEFBF7" fill-opacity="0.9"/>
<rect x="29" y="14" width="31" height="29" rx="5" fill="#60070B" fill-opacity="0.9"/>
<path fill-rule="evenodd" clip-rule="evenodd" d="M37.3797 29.124L35.8728 24.9839C35.6446 24.348 35.8613 23.8533 36.4564 23.4782L44.5608 20.5349C44.8176 20.4481 44.8441 20.7732 44.7498 20.9447L37.6021 35.5101L36.9959 33.8445L41.9337 23.4247L40.0128 24.0699L37.3795 29.1243L37.3797 29.124Z" fill="white" stroke="white" stroke-width="0.755769" stroke-miterlimit="22.9256"/>
<path fill-rule="evenodd" clip-rule="evenodd" d="M38.5493 38.1418L39.227 39.977L49.4891 18.5238L48.8004 16.6639L38.5493 38.1418Z" fill="white" stroke="white" stroke-width="0.755769" stroke-miterlimit="22.9256"/>
<path fill-rule="evenodd" clip-rule="evenodd" d="M50.997 27.7575L52.5038 31.8976C52.732 32.5333 52.5153 33.0282 51.9202 33.4034L43.8159 36.3466C43.559 36.4336 43.5324 36.1083 43.6268 35.9369L50.6379 21.65L51.2417 23.3305L46.4427 33.4569L48.3636 32.8117L50.9971 27.7573L50.997 27.7575Z" fill="white" stroke="white" stroke-width="0.755769" stroke-miterlimit="22.9256"/>
<path d="M67.2614 35H65.3977L69.5852 23.3636H71.6136L75.8011 35H73.9375L70.6477 25.4773H70.5568L67.2614 35ZM67.5739 30.4432H73.6193V31.9205H67.5739V30.4432ZM77.4233 35V26.2727H79.1222V35H77.4233ZM78.2812 24.9261C77.9858 24.9261 77.732 24.8277 77.5199 24.6307C77.3116 24.4299 77.2074 24.1913 77.2074 23.9148C77.2074 23.6345 77.3116 23.3958 77.5199 23.1989C77.732 22.9981 77.9858 22.8977 78.2812 22.8977C78.5767 22.8977 78.8286 22.9981 79.0369 23.1989C79.2491 23.3958 79.3551 23.6345 79.3551 23.9148C79.3551 24.1913 79.2491 24.4299 79.0369 24.6307C78.8286 24.8277 78.5767 24.9261 78.2812 24.9261ZM89.0284 35.1648C88.2481 35.1648 87.5758 35.0227 87.0114 34.7386C86.4508 34.4545 86.0189 34.0682 85.7159 33.5795C85.4129 33.0871 85.2614 32.5303 85.2614 31.9091C85.2614 31.4356 85.3598 31.0152 85.5568 30.6477C85.7538 30.2765 86.0284 29.9337 86.3807 29.6193C86.733 29.3049 87.1402 28.9886 87.6023 28.6705L89.4773 27.3466C89.7955 27.1383 90.0436 26.9186 90.2216 26.6875C90.3996 26.4527 90.4886 26.1629 90.4886 25.8182C90.4886 25.5455 90.3712 25.2841 90.1364 25.0341C89.9015 24.7841 89.5871 24.6591 89.1932 24.6591C88.9205 24.6591 88.6799 24.7254 88.4716 24.858C88.267 24.9905 88.1061 25.161 87.9886 25.3693C87.875 25.5739 87.8182 25.7898 87.8182 26.017C87.8182 26.2822 87.8902 26.5492 88.0341 26.8182C88.1818 27.0871 88.3712 27.3655 88.6023 27.6534C88.8333 27.9375 89.0758 28.233 89.3295 28.5398L94.733 35H92.8125L88.3409 29.7443C87.9659 29.3011 87.6174 28.8845 87.2955 28.4943C86.9735 28.1004 86.7121 27.7027 86.5114 27.3011C86.3144 26.8958 86.2159 26.4583 86.2159 25.9886C86.2159 25.4545 86.3371 24.9811 86.5795 24.5682C86.8258 24.1515 87.1686 23.8258 87.608 23.5909C88.0473 23.3561 88.5625 23.2386 89.1534 23.2386C89.7519 23.2386 90.2652 23.3561 90.6932 23.5909C91.125 23.822 91.4564 24.1307 91.6875 24.517C91.9223 24.8996 92.0398 25.3182 92.0398 25.7727C92.0398 26.3258 91.9015 26.8144 91.625 27.2386C91.3523 27.6591 90.9754 28.0455 90.4943 28.3977L88.1591 30.1193C87.7045 30.4527 87.3883 30.7822 87.2102 31.108C87.036 31.4299 86.9489 31.6818 86.9489 31.8636C86.9489 32.197 87.0341 32.5057 87.2045 32.7898C87.3788 33.0739 87.6212 33.3011 87.9318 33.4716C88.2462 33.642 88.6136 33.7273 89.0341 33.7273C89.4659 33.7273 89.8864 33.6345 90.2955 33.4489C90.7083 33.2595 91.0814 32.9886 91.4148 32.6364C91.7519 32.2841 92.0189 31.8617 92.2159 31.3693C92.4129 30.8769 92.5114 30.3258 92.5114 29.7159H94.0455C94.0455 30.4659 93.9602 31.1004 93.7898 31.6193C93.6193 32.1345 93.4129 32.5549 93.1705 32.8807C92.9318 33.2027 92.7064 33.4545 92.4943 33.6364C92.4261 33.697 92.3617 33.7576 92.3011 33.8182C92.2405 33.8788 92.1761 33.9394 92.108 34C91.714 34.3977 91.2367 34.6913 90.6761 34.8807C90.1193 35.0701 89.5701 35.1648 89.0284 35.1648ZM100.435 35V23.3636H107.651V24.875H102.19V28.4205H107.134V29.9261H102.19V35H100.435ZM114.655 31.3807V26.2727H116.359V35H114.689V33.4886H114.598C114.397 33.9545 114.075 34.3428 113.632 34.6534C113.193 34.9602 112.645 35.1136 111.99 35.1136C111.429 35.1136 110.933 34.9905 110.501 34.7443C110.073 34.4943 109.736 34.125 109.49 33.6364C109.248 33.1477 109.126 32.5436 109.126 31.8239V26.2727H110.825V31.6193C110.825 32.214 110.99 32.6875 111.32 33.0398C111.649 33.392 112.077 33.5682 112.604 33.5682C112.922 33.5682 113.238 33.4886 113.553 33.3295C113.871 33.1705 114.134 32.9299 114.342 32.608C114.554 32.286 114.659 31.8769 114.655 31.3807ZM120.341 23.3636V35H118.642V23.3636H120.341ZM124.325 23.3636V35H122.626V23.3636H124.325ZM133.151 28.4034L131.611 28.6761C131.546 28.4792 131.444 28.2917 131.304 28.1136C131.168 27.9356 130.982 27.7898 130.747 27.6761C130.512 27.5625 130.219 27.5057 129.866 27.5057C129.385 27.5057 128.984 27.6136 128.662 27.8295C128.34 28.0417 128.179 28.3163 128.179 28.6534C128.179 28.9451 128.287 29.1799 128.503 29.358C128.719 29.536 129.067 29.6818 129.548 29.7955L130.935 30.1136C131.738 30.2992 132.336 30.5852 132.73 30.9716C133.124 31.358 133.321 31.8598 133.321 32.4773C133.321 33 133.17 33.4659 132.866 33.875C132.567 34.2803 132.149 34.5985 131.611 34.8295C131.077 35.0606 130.457 35.1761 129.753 35.1761C128.776 35.1761 127.978 34.9678 127.361 34.5511C126.743 34.1307 126.365 33.5341 126.224 32.7614L127.866 32.5114C127.969 32.9394 128.179 33.2633 128.497 33.483C128.815 33.6989 129.23 33.8068 129.741 33.8068C130.298 33.8068 130.743 33.6913 131.077 33.4602C131.41 33.2254 131.577 32.9394 131.577 32.6023C131.577 32.3295 131.474 32.1004 131.27 31.9148C131.069 31.7292 130.76 31.589 130.344 31.4943L128.866 31.1705C128.052 30.9848 127.45 30.6894 127.06 30.2841C126.673 29.8788 126.48 29.3655 126.48 28.7443C126.48 28.2292 126.624 27.7784 126.912 27.392C127.2 27.0057 127.598 26.7045 128.105 26.4886C128.613 26.2689 129.194 26.1591 129.849 26.1591C130.793 26.1591 131.535 26.3636 132.077 26.7727C132.618 27.178 132.976 27.7216 133.151 28.4034ZM139.263 26.2727V27.6364H134.496V26.2727H139.263ZM135.774 24.1818H137.473V32.4375C137.473 32.767 137.522 33.0152 137.621 33.1818C137.719 33.3447 137.846 33.4564 138.001 33.517C138.161 33.5739 138.333 33.6023 138.518 33.6023C138.655 33.6023 138.774 33.5928 138.876 33.5739C138.979 33.5549 139.058 33.5398 139.115 33.5284L139.422 34.9318C139.323 34.9697 139.183 35.0076 139.001 35.0455C138.82 35.0871 138.592 35.1098 138.32 35.1136C137.873 35.1212 137.456 35.0417 137.07 34.875C136.683 34.7083 136.371 34.4508 136.132 34.1023C135.893 33.7538 135.774 33.3163 135.774 32.7898V24.1818ZM143.682 35.1932C143.129 35.1932 142.629 35.0909 142.182 34.8864C141.735 34.678 141.381 34.3769 141.119 33.983C140.862 33.589 140.733 33.1061 140.733 32.5341C140.733 32.0417 140.828 31.6364 141.017 31.3182C141.206 31 141.462 30.7481 141.784 30.5625C142.106 30.3769 142.466 30.2367 142.864 30.142C143.261 30.0473 143.667 29.9754 144.08 29.9261C144.602 29.8655 145.027 29.8163 145.352 29.7784C145.678 29.7367 145.915 29.6705 146.062 29.5795C146.21 29.4886 146.284 29.3409 146.284 29.1364V29.0966C146.284 28.6004 146.144 28.2159 145.864 27.9432C145.587 27.6705 145.174 27.5341 144.625 27.5341C144.053 27.5341 143.602 27.661 143.273 27.9148C142.947 28.1648 142.722 28.4432 142.597 28.75L141 28.3864C141.189 27.8561 141.466 27.428 141.83 27.1023C142.197 26.7727 142.619 26.5341 143.097 26.3864C143.574 26.2348 144.076 26.1591 144.602 26.1591C144.951 26.1591 145.32 26.2008 145.71 26.2841C146.104 26.3636 146.472 26.5114 146.812 26.7273C147.157 26.9432 147.439 27.2519 147.659 27.6534C147.879 28.0511 147.989 28.5682 147.989 29.2045V35H146.33V33.8068H146.261C146.152 34.0265 145.987 34.2424 145.767 34.4545C145.547 34.6667 145.265 34.8428 144.92 34.983C144.576 35.1231 144.163 35.1932 143.682 35.1932ZM144.051 33.8295C144.521 33.8295 144.922 33.7367 145.256 33.5511C145.593 33.3655 145.848 33.1231 146.023 32.8239C146.201 32.5208 146.29 32.197 146.29 31.8523V30.7273C146.229 30.7879 146.112 30.8447 145.938 30.8977C145.767 30.947 145.572 30.9905 145.352 31.0284C145.133 31.0625 144.919 31.0947 144.71 31.125C144.502 31.1515 144.328 31.1742 144.188 31.1932C143.858 31.2348 143.557 31.3049 143.284 31.4034C143.015 31.5019 142.799 31.6439 142.636 31.8295C142.477 32.0114 142.398 32.2538 142.398 32.5568C142.398 32.9773 142.553 33.2955 142.864 33.5114C143.174 33.7235 143.57 33.8295 144.051 33.8295ZM153.928 35.1761C153.083 35.1761 152.356 34.9848 151.746 34.6023C151.14 34.2159 150.674 33.6837 150.348 33.0057C150.022 32.3277 149.859 31.5511 149.859 30.6761C149.859 29.7898 150.026 29.0076 150.359 28.3295C150.693 27.6477 151.162 27.1155 151.768 26.733C152.375 26.3504 153.089 26.1591 153.911 26.1591C154.573 26.1591 155.164 26.2822 155.683 26.5284C156.202 26.7708 156.621 27.1117 156.939 27.5511C157.261 27.9905 157.452 28.5038 157.513 29.0909H155.859C155.768 28.6818 155.56 28.3295 155.234 28.0341C154.912 27.7386 154.481 27.5909 153.939 27.5909C153.465 27.5909 153.051 27.7159 152.695 27.9659C152.342 28.2121 152.068 28.5644 151.871 29.0227C151.674 29.4773 151.575 30.0152 151.575 30.6364C151.575 31.2727 151.672 31.822 151.865 32.2841C152.058 32.7462 152.331 33.1042 152.683 33.358C153.039 33.6117 153.458 33.7386 153.939 33.7386C154.261 33.7386 154.553 33.6799 154.814 33.5625C155.079 33.4413 155.301 33.2689 155.479 33.0455C155.661 32.822 155.787 32.553 155.859 32.2386H157.513C157.452 32.803 157.268 33.3068 156.962 33.75C156.655 34.1932 156.244 34.5417 155.729 34.7955C155.217 35.0492 154.617 35.1761 153.928 35.1761ZM160.892 32.0398L160.881 29.9659H161.176L164.653 26.2727H166.688L162.722 30.4773H162.455L160.892 32.0398ZM159.33 35V23.3636H161.028V35H159.33ZM164.841 35L161.716 30.8523L162.886 29.6648L166.926 35H164.841Z" fill="#686882"/>
</svg>
