<svg width="193" height="58" viewBox="0 0 193 58" fill="none" xmlns="http://www.w3.org/2000/svg">
<rect width="193" height="58" rx="10" fill="#FEFBF7" fill-opacity="0.9"/>
<rect x="29" y="14" width="31" height="29" rx="5" fill="#60070B" fill-opacity="0.9"/>
<path fill-rule="evenodd" clip-rule="evenodd" d="M37.3797 29.124L35.8728 24.9839C35.6446 24.348 35.8613 23.8533 36.4564 23.4782L44.5608 20.5349C44.8176 20.4481 44.8441 20.7732 44.7498 20.9447L37.6021 35.5101L36.9959 33.8445L41.9337 23.4247L40.0128 24.0699L37.3795 29.1243L37.3797 29.124Z" fill="white" stroke="white" stroke-width="0.755769" stroke-miterlimit="22.9256"/>
<path fill-rule="evenodd" clip-rule="evenodd" d="M38.5493 38.1418L39.227 39.977L49.4891 18.5238L48.8004 16.6639L38.5493 38.1418Z" fill="white" stroke="white" stroke-width="0.755769" stroke-miterlimit="22.9256"/>
<path fill-rule="evenodd" clip-rule="evenodd" d="M50.997 27.7575L52.5038 31.8976C52.732 32.5333 52.5153 33.0282 51.9202 33.4034L43.8159 36.3466C43.559 36.4336 43.5324 36.1083 43.6268 35.9369L50.6379 21.65L51.2417 23.3305L46.4427 33.4569L48.3636 32.8117L50.9971 27.7573L50.997 27.7575Z" fill="white" stroke="white" stroke-width="0.755769" stroke-miterlimit="22.9256"/>
<path d="M83.9432 26.1477H82.1705C82.1023 25.7689 81.9754 25.4356 81.7898 25.1477C81.6042 24.8598 81.3769 24.6155 81.108 24.4148C80.839 24.214 80.5379 24.0625 80.2045 23.9602C79.875 23.858 79.5246 23.8068 79.1534 23.8068C78.483 23.8068 77.8826 23.9754 77.3523 24.3125C76.8258 24.6496 76.4091 25.1439 76.1023 25.7955C75.7992 26.447 75.6477 27.2424 75.6477 28.1818C75.6477 29.1288 75.7992 29.928 76.1023 30.5795C76.4091 31.2311 76.8277 31.7235 77.358 32.0568C77.8883 32.3902 78.4848 32.5568 79.1477 32.5568C79.5152 32.5568 79.8636 32.5076 80.1932 32.4091C80.5265 32.3068 80.8277 32.1572 81.0966 31.9602C81.3655 31.7633 81.5928 31.5227 81.7784 31.2386C81.9678 30.9508 82.0985 30.6212 82.1705 30.25L83.9432 30.2557C83.8485 30.8277 83.6648 31.3542 83.392 31.8352C83.1231 32.3125 82.7765 32.7254 82.3523 33.0739C81.9318 33.4186 81.4508 33.6856 80.9091 33.875C80.3674 34.0644 79.7765 34.1591 79.1364 34.1591C78.1288 34.1591 77.2311 33.9205 76.4432 33.4432C75.6553 32.9621 75.0341 32.2746 74.5795 31.3807C74.1288 30.4867 73.9034 29.4205 73.9034 28.1818C73.9034 26.9394 74.1307 25.8731 74.5852 24.983C75.0398 24.089 75.661 23.4034 76.4489 22.9261C77.2367 22.4451 78.1326 22.2045 79.1364 22.2045C79.7538 22.2045 80.3295 22.2936 80.8636 22.4716C81.4015 22.6458 81.8845 22.9034 82.3125 23.2443C82.7405 23.5814 83.0947 23.9943 83.375 24.483C83.6553 24.9678 83.8447 25.5227 83.9432 26.1477ZM87.0128 37.2727C86.759 37.2727 86.5279 37.2519 86.3196 37.2102C86.1113 37.1723 85.956 37.1307 85.8537 37.0852L86.2628 35.6932C86.5734 35.7765 86.8499 35.8125 87.0923 35.8011C87.3348 35.7898 87.5488 35.6989 87.7344 35.5284C87.9238 35.358 88.0904 35.0795 88.2344 34.6932L88.4446 34.1136L85.2514 25.2727H87.0696L89.2798 32.0455H89.3707L91.581 25.2727H93.4048L89.8082 35.1648C89.6416 35.6193 89.4295 36.0038 89.1719 36.3182C88.9143 36.6364 88.6075 36.875 88.2514 37.0341C87.8954 37.1932 87.4825 37.2727 87.0128 37.2727ZM95.1378 34V22.3636H96.8366V26.6875H96.9389C97.0374 26.5057 97.1795 26.2955 97.3651 26.0568C97.5507 25.8182 97.8082 25.6098 98.1378 25.4318C98.4673 25.25 98.9029 25.1591 99.4446 25.1591C100.149 25.1591 100.778 25.3371 101.331 25.6932C101.884 26.0492 102.318 26.5625 102.632 27.233C102.95 27.9034 103.109 28.7102 103.109 29.6534C103.109 30.5966 102.952 31.4053 102.638 32.0795C102.323 32.75 101.892 33.267 101.342 33.6307C100.793 33.9905 100.166 34.1705 99.4616 34.1705C98.9313 34.1705 98.4976 34.0814 98.1605 33.9034C97.8272 33.7254 97.5658 33.517 97.3764 33.2784C97.187 33.0398 97.0412 32.8277 96.9389 32.642H96.7969V34H95.1378ZM96.8026 29.6364C96.8026 30.25 96.8916 30.7879 97.0696 31.25C97.2476 31.7121 97.5052 32.0739 97.8423 32.3352C98.1795 32.5928 98.5923 32.7216 99.081 32.7216C99.5885 32.7216 100.013 32.5871 100.354 32.3182C100.695 32.0455 100.952 31.6761 101.126 31.2102C101.304 30.7443 101.393 30.2197 101.393 29.6364C101.393 29.0606 101.306 28.5436 101.132 28.0852C100.962 27.6269 100.704 27.2652 100.359 27C100.018 26.7348 99.5923 26.6023 99.081 26.6023C98.5885 26.6023 98.1719 26.7292 97.831 26.983C97.4938 27.2367 97.2382 27.5909 97.0639 28.0455C96.8897 28.5 96.8026 29.0303 96.8026 29.6364ZM108.778 34.1761C107.919 34.1761 107.178 33.9924 106.557 33.625C105.939 33.2538 105.462 32.733 105.125 32.0625C104.792 31.3883 104.625 30.5985 104.625 29.6932C104.625 28.7992 104.792 28.0114 105.125 27.3295C105.462 26.6477 105.932 26.1155 106.534 25.733C107.14 25.3504 107.848 25.1591 108.659 25.1591C109.152 25.1591 109.629 25.2405 110.091 25.4034C110.553 25.5663 110.968 25.822 111.335 26.1705C111.703 26.5189 111.992 26.9716 112.205 27.5284C112.417 28.0814 112.523 28.7538 112.523 29.5455V30.1477H105.585V28.875H110.858C110.858 28.428 110.767 28.0322 110.585 27.6875C110.403 27.339 110.148 27.0644 109.818 26.8636C109.492 26.6629 109.11 26.5625 108.67 26.5625C108.193 26.5625 107.777 26.6799 107.42 26.9148C107.068 27.1458 106.795 27.4489 106.602 27.8239C106.413 28.1951 106.318 28.5985 106.318 29.0341V30.0284C106.318 30.6117 106.42 31.108 106.625 31.517C106.833 31.9261 107.123 32.2386 107.494 32.4545C107.866 32.6667 108.299 32.7727 108.795 32.7727C109.117 32.7727 109.411 32.7273 109.676 32.6364C109.941 32.5417 110.17 32.4015 110.364 32.2159C110.557 32.0303 110.705 31.8011 110.807 31.5284L112.415 31.8182C112.286 32.2917 112.055 32.7064 111.722 33.0625C111.392 33.4148 110.977 33.6894 110.477 33.8864C109.981 34.0795 109.415 34.1761 108.778 34.1761ZM114.408 34V25.2727H116.05V26.6591H116.141C116.3 26.1894 116.58 25.8201 116.982 25.5511C117.387 25.2784 117.845 25.142 118.357 25.142C118.463 25.142 118.588 25.1458 118.732 25.1534C118.879 25.161 118.995 25.1705 119.078 25.1818V26.8068C119.01 26.7879 118.889 26.767 118.714 26.7443C118.54 26.7178 118.366 26.7045 118.192 26.7045C117.79 26.7045 117.432 26.7898 117.118 26.9602C116.807 27.1269 116.561 27.3598 116.379 27.6591C116.197 27.9545 116.107 28.2917 116.107 28.6705V34H114.408ZM127.088 27.4034L125.548 27.6761C125.484 27.4792 125.382 27.2917 125.241 27.1136C125.105 26.9356 124.92 26.7898 124.685 26.6761C124.45 26.5625 124.156 26.5057 123.804 26.5057C123.323 26.5057 122.921 26.6136 122.599 26.8295C122.277 27.0417 122.116 27.3163 122.116 27.6534C122.116 27.9451 122.224 28.1799 122.44 28.358C122.656 28.536 123.005 28.6818 123.486 28.7955L124.872 29.1136C125.675 29.2992 126.274 29.5852 126.668 29.9716C127.062 30.358 127.259 30.8598 127.259 31.4773C127.259 32 127.107 32.4659 126.804 32.875C126.505 33.2803 126.086 33.5985 125.548 33.8295C125.014 34.0606 124.395 34.1761 123.69 34.1761C122.713 34.1761 121.916 33.9678 121.298 33.5511C120.681 33.1307 120.302 32.5341 120.162 31.7614L121.804 31.5114C121.906 31.9394 122.116 32.2633 122.435 32.483C122.753 32.6989 123.168 32.8068 123.679 32.8068C124.236 32.8068 124.681 32.6913 125.014 32.4602C125.348 32.2254 125.514 31.9394 125.514 31.6023C125.514 31.3295 125.412 31.1004 125.207 30.9148C125.007 30.7292 124.698 30.589 124.281 30.4943L122.804 30.1705C121.99 29.9848 121.387 29.6894 120.997 29.2841C120.611 28.8788 120.418 28.3655 120.418 27.7443C120.418 27.2292 120.562 26.7784 120.849 26.392C121.137 26.0057 121.535 25.7045 122.043 25.4886C122.55 25.2689 123.132 25.1591 123.787 25.1591C124.73 25.1591 125.473 25.3636 126.014 25.7727C126.556 26.178 126.914 26.7216 127.088 27.4034ZM132.888 34.1761C132.028 34.1761 131.287 33.9924 130.666 33.625C130.049 33.2538 129.571 32.733 129.234 32.0625C128.901 31.3883 128.734 30.5985 128.734 29.6932C128.734 28.7992 128.901 28.0114 129.234 27.3295C129.571 26.6477 130.041 26.1155 130.643 25.733C131.25 25.3504 131.958 25.1591 132.768 25.1591C133.261 25.1591 133.738 25.2405 134.2 25.4034C134.662 25.5663 135.077 25.822 135.445 26.1705C135.812 26.5189 136.102 26.9716 136.314 27.5284C136.526 28.0814 136.632 28.7538 136.632 29.5455V30.1477H129.695V28.875H134.967C134.967 28.428 134.876 28.0322 134.695 27.6875C134.513 27.339 134.257 27.0644 133.928 26.8636C133.602 26.6629 133.219 26.5625 132.78 26.5625C132.303 26.5625 131.886 26.6799 131.53 26.9148C131.178 27.1458 130.905 27.4489 130.712 27.8239C130.522 28.1951 130.428 28.5985 130.428 29.0341V30.0284C130.428 30.6117 130.53 31.108 130.734 31.517C130.943 31.9261 131.232 32.2386 131.604 32.4545C131.975 32.6667 132.409 32.7727 132.905 32.7727C133.227 32.7727 133.52 32.7273 133.786 32.6364C134.051 32.5417 134.28 32.4015 134.473 32.2159C134.666 32.0303 134.814 31.8011 134.916 31.5284L136.524 31.8182C136.395 32.2917 136.164 32.7064 135.831 33.0625C135.501 33.4148 135.087 33.6894 134.587 33.8864C134.09 34.0795 133.524 34.1761 132.888 34.1761ZM142.193 34.1761C141.348 34.1761 140.621 33.9848 140.011 33.6023C139.405 33.2159 138.939 32.6837 138.614 32.0057C138.288 31.3277 138.125 30.5511 138.125 29.6761C138.125 28.7898 138.292 28.0076 138.625 27.3295C138.958 26.6477 139.428 26.1155 140.034 25.733C140.64 25.3504 141.354 25.1591 142.176 25.1591C142.839 25.1591 143.43 25.2822 143.949 25.5284C144.468 25.7708 144.886 26.1117 145.205 26.5511C145.527 26.9905 145.718 27.5038 145.778 28.0909H144.125C144.034 27.6818 143.826 27.3295 143.5 27.0341C143.178 26.7386 142.746 26.5909 142.205 26.5909C141.731 26.5909 141.316 26.7159 140.96 26.9659C140.608 27.2121 140.333 27.5644 140.136 28.0227C139.939 28.4773 139.841 29.0152 139.841 29.6364C139.841 30.2727 139.938 30.822 140.131 31.2841C140.324 31.7462 140.597 32.1042 140.949 32.358C141.305 32.6117 141.723 32.7386 142.205 32.7386C142.527 32.7386 142.818 32.6799 143.08 32.5625C143.345 32.4413 143.566 32.2689 143.744 32.0455C143.926 31.822 144.053 31.553 144.125 31.2386H145.778C145.718 31.803 145.534 32.3068 145.227 32.75C144.92 33.1932 144.509 33.5417 143.994 33.7955C143.483 34.0492 142.883 34.1761 142.193 34.1761ZM153.124 30.3807V25.2727H154.828V34H153.158V32.4886H153.067C152.866 32.9545 152.544 33.3428 152.101 33.6534C151.661 33.9602 151.114 34.1136 150.459 34.1136C149.898 34.1136 149.402 33.9905 148.97 33.7443C148.542 33.4943 148.205 33.125 147.959 32.6364C147.716 32.1477 147.595 31.5436 147.595 30.8239V25.2727H149.294V30.6193C149.294 31.214 149.459 31.6875 149.788 32.0398C150.118 32.392 150.546 32.5682 151.072 32.5682C151.391 32.5682 151.707 32.4886 152.021 32.3295C152.339 32.1705 152.603 31.9299 152.811 31.608C153.023 31.286 153.127 30.8769 153.124 30.3807ZM157.111 34V25.2727H158.753V26.6591H158.844C159.003 26.1894 159.283 25.8201 159.685 25.5511C160.09 25.2784 160.548 25.142 161.06 25.142C161.166 25.142 161.291 25.1458 161.435 25.1534C161.582 25.161 161.698 25.1705 161.781 25.1818V26.8068C161.713 26.7879 161.592 26.767 161.418 26.7443C161.243 26.7178 161.069 26.7045 160.895 26.7045C160.493 26.7045 160.135 26.7898 159.821 26.9602C159.51 27.1269 159.264 27.3598 159.082 27.6591C158.901 27.9545 158.81 28.2917 158.81 28.6705V34H157.111ZM163.251 34V25.2727H164.95V34H163.251ZM164.109 23.9261C163.814 23.9261 163.56 23.8277 163.348 23.6307C163.14 23.4299 163.036 23.1913 163.036 22.9148C163.036 22.6345 163.14 22.3958 163.348 22.1989C163.56 21.9981 163.814 21.8977 164.109 21.8977C164.405 21.8977 164.657 21.9981 164.865 22.1989C165.077 22.3958 165.183 22.6345 165.183 22.9148C165.183 23.1913 165.077 23.4299 164.865 23.6307C164.657 23.8277 164.405 23.9261 164.109 23.9261ZM171.31 25.2727V26.6364H166.543V25.2727H171.31ZM167.821 23.1818H169.52V31.4375C169.52 31.767 169.569 32.0152 169.668 32.1818C169.766 32.3447 169.893 32.4564 170.048 32.517C170.207 32.5739 170.38 32.6023 170.565 32.6023C170.702 32.6023 170.821 32.5928 170.923 32.5739C171.026 32.5549 171.105 32.5398 171.162 32.5284L171.469 33.9318C171.37 33.9697 171.23 34.0076 171.048 34.0455C170.866 34.0871 170.639 34.1098 170.366 34.1136C169.92 34.1212 169.503 34.0417 169.116 33.875C168.73 33.7083 168.418 33.4508 168.179 33.1023C167.94 32.7538 167.821 32.3163 167.821 31.7898V23.1818ZM174.263 37.2727C174.009 37.2727 173.778 37.2519 173.57 37.2102C173.361 37.1723 173.206 37.1307 173.104 37.0852L173.513 35.6932C173.823 35.7765 174.1 35.8125 174.342 35.8011C174.585 35.7898 174.799 35.6989 174.984 35.5284C175.174 35.358 175.34 35.0795 175.484 34.6932L175.695 34.1136L172.501 25.2727H174.32L176.53 32.0455H176.621L178.831 25.2727H180.655L177.058 35.1648C176.892 35.6193 176.679 36.0038 176.422 36.3182C176.164 36.6364 175.857 36.875 175.501 37.0341C175.145 37.1932 174.732 37.2727 174.263 37.2727Z" fill="#686882"/>
</svg>
