<svg width="36" height="36" viewBox="0 0 36 36" fill="none" xmlns="http://www.w3.org/2000/svg">
<path d="M30 9H26.73C26.895 8.535 27 8.025 27 7.5C27.0016 6.53223 26.6908 5.5898 26.1138 4.81289C25.5367 4.03597 24.7243 3.46609 23.7973 3.188C22.8704 2.90992 21.8784 2.93849 20.969 3.26947C20.0596 3.60045 19.2814 4.21615 18.75 5.025L18 6.02999L17.25 5.01C16.44 3.81 15.075 3 13.5 3C11.01 3 9 5.01 9 7.5C9 8.025 9.105 8.535 9.27 9H6C4.335 9 3.015 10.335 3.015 12L3 28.5C3 30.165 4.335 31.5 6 31.5H30C31.665 31.5 33 30.165 33 28.5V12C33 10.335 31.665 9 30 9ZM22.5 6C23.325 6 24 6.675 24 7.5C24 8.325 23.325 9 22.5 9C21.675 9 21 8.325 21 7.5C21 6.675 21.675 6 22.5 6ZM13.5 6C14.325 6 15 6.675 15 7.5C15 8.325 14.325 9 13.5 9C12.675 9 12 8.325 12 7.5C12 6.675 12.675 6 13.5 6Z" fill="white"/>
</svg>
