<svg width="90" height="82" viewBox="0 0 90 82" fill="none" xmlns="http://www.w3.org/2000/svg">
<rect width="90" height="82" rx="10" fill="#FEFBF7"/>
<rect x="29" y="19" width="31" height="29" rx="5" fill="#5E0BD1" fill-opacity="0.6"/>
<path fill-rule="evenodd" clip-rule="evenodd" d="M37.3797 34.1241L35.8728 29.984C35.6446 29.3481 35.8613 28.8534 36.4564 28.4782L44.5608 25.5349C44.8176 25.4481 44.8441 25.7732 44.7498 25.9448L37.6021 40.5101L36.9959 38.8446L41.9337 28.4247L40.0128 29.07L37.3795 34.1243L37.3797 34.1241Z" fill="white" stroke="white" stroke-width="0.755769" stroke-miterlimit="22.9256"/>
<path fill-rule="evenodd" clip-rule="evenodd" d="M38.5493 43.1418L39.227 44.977L49.4891 23.5238L48.8004 21.6639L38.5493 43.1418Z" fill="white" stroke="white" stroke-width="0.755769" stroke-miterlimit="22.9256"/>
<path fill-rule="evenodd" clip-rule="evenodd" d="M50.997 32.7575L52.5039 36.8976C52.7321 37.5333 52.5153 38.0282 51.9202 38.4034L43.8159 41.3466C43.5591 41.4336 43.5325 41.1083 43.6269 40.9369L50.6379 26.65L51.2417 28.3305L46.4427 38.4569L48.3636 37.8117L50.9971 32.7573L50.997 32.7575Z" fill="white" stroke="white" stroke-width="0.755769" stroke-miterlimit="22.9256"/>
<path d="M32.6705 69.3807V64.2727H34.375V73H32.7045V71.4886H32.6136C32.4129 71.9545 32.0909 72.3428 31.6477 72.6534C31.2083 72.9602 30.661 73.1136 30.0057 73.1136C29.4451 73.1136 28.9489 72.9905 28.517 72.7443C28.089 72.4943 27.7519 72.125 27.5057 71.6364C27.2633 71.1477 27.142 70.5436 27.142 69.8239V64.2727H28.8409V69.6193C28.8409 70.214 29.0057 70.6875 29.3352 71.0398C29.6648 71.392 30.0928 71.5682 30.6193 71.5682C30.9375 71.5682 31.2538 71.4886 31.5682 71.3295C31.8864 71.1705 32.1496 70.9299 32.358 70.608C32.5701 70.286 32.6742 69.8769 32.6705 69.3807ZM36.6577 73V64.2727H38.3565V73H36.6577ZM37.5156 62.9261C37.2202 62.9261 36.9664 62.8277 36.7543 62.6307C36.5459 62.4299 36.4418 62.1913 36.4418 61.9148C36.4418 61.6345 36.5459 61.3958 36.7543 61.1989C36.9664 60.9981 37.2202 60.8977 37.5156 60.8977C37.8111 60.8977 38.063 60.9981 38.2713 61.1989C38.4834 61.3958 38.5895 61.6345 38.5895 61.9148C38.5895 62.1913 38.4834 62.4299 38.2713 62.6307C38.063 62.8277 37.8111 62.9261 37.5156 62.9261ZM45.0739 60.8182L41.3239 74.75H39.8068L43.5568 60.8182H45.0739ZM52.0455 69.3807V64.2727H53.75V73H52.0795V71.4886H51.9886C51.7879 71.9545 51.4659 72.3428 51.0227 72.6534C50.5833 72.9602 50.036 73.1136 49.3807 73.1136C48.8201 73.1136 48.3239 72.9905 47.892 72.7443C47.464 72.4943 47.1269 72.125 46.8807 71.6364C46.6383 71.1477 46.517 70.5436 46.517 69.8239V64.2727H48.2159V69.6193C48.2159 70.214 48.3807 70.6875 48.7102 71.0398C49.0398 71.392 49.4678 71.5682 49.9943 71.5682C50.3125 71.5682 50.6288 71.4886 50.9432 71.3295C51.2614 71.1705 51.5246 70.9299 51.733 70.608C51.9451 70.286 52.0492 69.8769 52.0455 69.3807ZM57.3736 64.2727L59.2997 67.6705L61.2429 64.2727H63.1009L60.3793 68.6364L63.1236 73H61.2656L59.2997 69.7386L57.3395 73H55.4759L58.1918 68.6364L55.5099 64.2727H57.3736Z" fill="#686882"/>
</svg>
