<svg width="216" height="58" viewBox="0 0 216 58" fill="none" xmlns="http://www.w3.org/2000/svg">
<rect width="216" height="58" rx="10" fill="#FEFBF7" fill-opacity="0.9"/>
<rect x="29" y="14" width="31" height="29" rx="5" fill="#34296B"/>
<path fill-rule="evenodd" clip-rule="evenodd" d="M37.3797 29.1241L35.8728 24.984C35.6446 24.3481 35.8613 23.8534 36.4564 23.4782L44.5608 20.5349C44.8176 20.4481 44.8441 20.7732 44.7498 20.9448L37.6021 35.5101L36.9959 33.8446L41.9337 23.4247L40.0128 24.07L37.3795 29.1243L37.3797 29.1241Z" fill="white" stroke="white" stroke-width="0.755769" stroke-miterlimit="22.9256"/>
<path fill-rule="evenodd" clip-rule="evenodd" d="M38.5493 38.1418L39.227 39.977L49.4891 18.5238L48.8004 16.6639L38.5493 38.1418Z" fill="white" stroke="white" stroke-width="0.755769" stroke-miterlimit="22.9256"/>
<path fill-rule="evenodd" clip-rule="evenodd" d="M50.997 27.7575L52.5038 31.8976C52.732 32.5333 52.5153 33.0282 51.9202 33.4034L43.8159 36.3466C43.559 36.4336 43.5324 36.1083 43.6268 35.9369L50.6379 21.65L51.2417 23.3305L46.4427 33.4569L48.3636 32.8117L50.9971 27.7573L50.997 27.7575Z" fill="white" stroke="white" stroke-width="0.755769" stroke-miterlimit="22.9256"/>
<path d="M73.0455 35H69.2784V23.3636H73.1648C74.3049 23.3636 75.2841 23.5966 76.1023 24.0625C76.9205 24.5246 77.5473 25.1894 77.983 26.0568C78.4223 26.9205 78.642 27.9564 78.642 29.1648C78.642 30.3769 78.4205 31.4186 77.9773 32.2898C77.5379 33.161 76.9015 33.8314 76.0682 34.3011C75.2348 34.767 74.2273 35 73.0455 35ZM71.0341 33.4659H72.9489C73.8352 33.4659 74.572 33.2992 75.1591 32.9659C75.7462 32.6288 76.1856 32.142 76.4773 31.5057C76.7689 30.8655 76.9148 30.0852 76.9148 29.1648C76.9148 28.2519 76.7689 27.4773 76.4773 26.8409C76.1894 26.2045 75.7595 25.7216 75.1875 25.392C74.6155 25.0625 73.9053 24.8977 73.0568 24.8977H71.0341V33.4659ZM83.2287 35.1932C82.6757 35.1932 82.1757 35.0909 81.7287 34.8864C81.2817 34.678 80.9276 34.3769 80.6662 33.983C80.4086 33.589 80.2798 33.1061 80.2798 32.5341C80.2798 32.0417 80.3745 31.6364 80.5639 31.3182C80.7533 31 81.009 30.7481 81.331 30.5625C81.6529 30.3769 82.0128 30.2367 82.4105 30.142C82.8082 30.0473 83.2135 29.9754 83.6264 29.9261C84.1491 29.8655 84.5734 29.8163 84.8991 29.7784C85.2249 29.7367 85.4616 29.6705 85.6094 29.5795C85.7571 29.4886 85.831 29.3409 85.831 29.1364V29.0966C85.831 28.6004 85.6908 28.2159 85.4105 27.9432C85.134 27.6705 84.7211 27.5341 84.1719 27.5341C83.5999 27.5341 83.1491 27.661 82.8196 27.9148C82.4938 28.1648 82.2685 28.4432 82.1435 28.75L80.5469 28.3864C80.7363 27.8561 81.0128 27.428 81.3764 27.1023C81.7438 26.7727 82.1662 26.5341 82.6435 26.3864C83.1207 26.2348 83.6226 26.1591 84.1491 26.1591C84.4976 26.1591 84.867 26.2008 85.2571 26.2841C85.651 26.3636 86.0185 26.5114 86.3594 26.7273C86.7041 26.9432 86.9863 27.2519 87.206 27.6534C87.4257 28.0511 87.5355 28.5682 87.5355 29.2045V35H85.8764V33.8068H85.8082C85.6984 34.0265 85.5336 34.2424 85.3139 34.4545C85.0942 34.6667 84.812 34.8428 84.4673 34.983C84.1226 35.1231 83.7098 35.1932 83.2287 35.1932ZM83.598 33.8295C84.0677 33.8295 84.4692 33.7367 84.8026 33.5511C85.1397 33.3655 85.3954 33.1231 85.5696 32.8239C85.7476 32.5208 85.8366 32.197 85.8366 31.8523V30.7273C85.776 30.7879 85.6586 30.8447 85.4844 30.8977C85.3139 30.947 85.1188 30.9905 84.8991 31.0284C84.6795 31.0625 84.4654 31.0947 84.2571 31.125C84.0488 31.1515 83.8745 31.1742 83.7344 31.1932C83.4048 31.2348 83.1037 31.3049 82.831 31.4034C82.562 31.5019 82.3461 31.6439 82.1832 31.8295C82.0241 32.0114 81.9446 32.2538 81.9446 32.5568C81.9446 32.9773 82.0999 33.2955 82.4105 33.5114C82.7211 33.7235 83.117 33.8295 83.598 33.8295ZM93.8722 26.2727V27.6364H89.1051V26.2727H93.8722ZM90.3835 24.1818H92.0824V32.4375C92.0824 32.767 92.1316 33.0152 92.2301 33.1818C92.3286 33.3447 92.4555 33.4564 92.6108 33.517C92.7699 33.5739 92.9422 33.6023 93.1278 33.6023C93.2642 33.6023 93.3835 33.5928 93.4858 33.5739C93.5881 33.5549 93.6676 33.5398 93.7244 33.5284L94.0312 34.9318C93.9328 34.9697 93.7926 35.0076 93.6108 35.0455C93.429 35.0871 93.2017 35.1098 92.929 35.1136C92.482 35.1212 92.0653 35.0417 91.679 34.875C91.2926 34.7083 90.9801 34.4508 90.7415 34.1023C90.5028 33.7538 90.3835 33.3163 90.3835 32.7898V24.1818ZM98.2912 35.1932C97.7382 35.1932 97.2382 35.0909 96.7912 34.8864C96.3442 34.678 95.9901 34.3769 95.7287 33.983C95.4711 33.589 95.3423 33.1061 95.3423 32.5341C95.3423 32.0417 95.437 31.6364 95.6264 31.3182C95.8158 31 96.0715 30.7481 96.3935 30.5625C96.7154 30.3769 97.0753 30.2367 97.473 30.142C97.8707 30.0473 98.276 29.9754 98.6889 29.9261C99.2116 29.8655 99.6359 29.8163 99.9616 29.7784C100.287 29.7367 100.524 29.6705 100.672 29.5795C100.82 29.4886 100.893 29.3409 100.893 29.1364V29.0966C100.893 28.6004 100.753 28.2159 100.473 27.9432C100.196 27.6705 99.7836 27.5341 99.2344 27.5341C98.6624 27.5341 98.2116 27.661 97.8821 27.9148C97.5563 28.1648 97.331 28.4432 97.206 28.75L95.6094 28.3864C95.7988 27.8561 96.0753 27.428 96.4389 27.1023C96.8063 26.7727 97.2287 26.5341 97.706 26.3864C98.1832 26.2348 98.6851 26.1591 99.2116 26.1591C99.5601 26.1591 99.9295 26.2008 100.32 26.2841C100.714 26.3636 101.081 26.5114 101.422 26.7273C101.767 26.9432 102.049 27.2519 102.268 27.6534C102.488 28.0511 102.598 28.5682 102.598 29.2045V35H100.939V33.8068H100.871C100.761 34.0265 100.596 34.2424 100.376 34.4545C100.157 34.6667 99.8745 34.8428 99.5298 34.983C99.1851 35.1231 98.7723 35.1932 98.2912 35.1932ZM98.6605 33.8295C99.1302 33.8295 99.5317 33.7367 99.8651 33.5511C100.202 33.3655 100.458 33.1231 100.632 32.8239C100.81 32.5208 100.899 32.197 100.899 31.8523V30.7273C100.839 30.7879 100.721 30.8447 100.547 30.8977C100.376 30.947 100.181 30.9905 99.9616 31.0284C99.742 31.0625 99.5279 31.0947 99.3196 31.125C99.1113 31.1515 98.937 31.1742 98.7969 31.1932C98.4673 31.2348 98.1662 31.3049 97.8935 31.4034C97.6245 31.5019 97.4086 31.6439 97.2457 31.8295C97.0866 32.0114 97.0071 32.2538 97.0071 32.5568C97.0071 32.9773 97.1624 33.2955 97.473 33.5114C97.7836 33.7235 98.1795 33.8295 98.6605 33.8295ZM110.214 35H108.351L112.538 23.3636H114.567L118.754 35H116.891L113.601 25.4773H113.51L110.214 35ZM110.527 30.4432H116.572V31.9205H110.527V30.4432ZM121.997 29.8182V35H120.298V26.2727H121.929V27.6932H122.037C122.238 27.2311 122.552 26.8598 122.98 26.5795C123.412 26.2992 123.955 26.1591 124.611 26.1591C125.205 26.1591 125.726 26.2841 126.173 26.5341C126.62 26.7803 126.967 27.1477 127.213 27.6364C127.459 28.125 127.582 28.7292 127.582 29.4489V35H125.884V29.6534C125.884 29.0208 125.719 28.5265 125.389 28.1705C125.06 27.8106 124.607 27.6307 124.031 27.6307C123.637 27.6307 123.287 27.7159 122.98 27.8864C122.677 28.0568 122.437 28.3068 122.259 28.6364C122.084 28.9621 121.997 29.3561 121.997 29.8182ZM132.401 35.1932C131.848 35.1932 131.348 35.0909 130.901 34.8864C130.454 34.678 130.099 34.3769 129.838 33.983C129.58 33.589 129.452 33.1061 129.452 32.5341C129.452 32.0417 129.546 31.6364 129.736 31.3182C129.925 31 130.181 30.7481 130.503 30.5625C130.825 30.3769 131.185 30.2367 131.582 30.142C131.98 30.0473 132.385 29.9754 132.798 29.9261C133.321 29.8655 133.745 29.8163 134.071 29.7784C134.397 29.7367 134.634 29.6705 134.781 29.5795C134.929 29.4886 135.003 29.3409 135.003 29.1364V29.0966C135.003 28.6004 134.863 28.2159 134.582 27.9432C134.306 27.6705 133.893 27.5341 133.344 27.5341C132.772 27.5341 132.321 27.661 131.991 27.9148C131.666 28.1648 131.44 28.4432 131.315 28.75L129.719 28.3864C129.908 27.8561 130.185 27.428 130.548 27.1023C130.916 26.7727 131.338 26.5341 131.815 26.3864C132.293 26.2348 132.795 26.1591 133.321 26.1591C133.67 26.1591 134.039 26.2008 134.429 26.2841C134.823 26.3636 135.19 26.5114 135.531 26.7273C135.876 26.9432 136.158 27.2519 136.378 27.6534C136.598 28.0511 136.707 28.5682 136.707 29.2045V35H135.048V33.8068H134.98C134.87 34.0265 134.705 34.2424 134.486 34.4545C134.266 34.6667 133.984 34.8428 133.639 34.983C133.295 35.1231 132.882 35.1932 132.401 35.1932ZM132.77 33.8295C133.24 33.8295 133.641 33.7367 133.974 33.5511C134.312 33.3655 134.567 33.1231 134.741 32.8239C134.92 32.5208 135.009 32.197 135.009 31.8523V30.7273C134.948 30.7879 134.83 30.8447 134.656 30.8977C134.486 30.947 134.291 30.9905 134.071 31.0284C133.851 31.0625 133.637 31.0947 133.429 31.125C133.221 31.1515 133.046 31.1742 132.906 31.1932C132.577 31.2348 132.276 31.3049 132.003 31.4034C131.734 31.5019 131.518 31.6439 131.355 31.8295C131.196 32.0114 131.116 32.2538 131.116 32.5568C131.116 32.9773 131.272 33.2955 131.582 33.5114C131.893 33.7235 132.289 33.8295 132.77 33.8295ZM140.669 23.3636V35H138.97V23.3636H140.669ZM144.028 38.2727C143.775 38.2727 143.544 38.2519 143.335 38.2102C143.127 38.1723 142.972 38.1307 142.869 38.0852L143.278 36.6932C143.589 36.7765 143.866 36.8125 144.108 36.8011C144.35 36.7898 144.564 36.6989 144.75 36.5284C144.939 36.358 145.106 36.0795 145.25 35.6932L145.46 35.1136L142.267 26.2727H144.085L146.295 33.0455H146.386L148.597 26.2727H150.42L146.824 36.1648C146.657 36.6193 146.445 37.0038 146.188 37.3182C145.93 37.6364 145.623 37.875 145.267 38.0341C144.911 38.1932 144.498 38.2727 144.028 38.2727ZM156.091 26.2727V27.6364H151.324V26.2727H156.091ZM152.602 24.1818H154.301V32.4375C154.301 32.767 154.35 33.0152 154.449 33.1818C154.547 33.3447 154.674 33.4564 154.83 33.517C154.989 33.5739 155.161 33.6023 155.347 33.6023C155.483 33.6023 155.602 33.5928 155.705 33.5739C155.807 33.5549 155.886 33.5398 155.943 33.5284L156.25 34.9318C156.152 34.9697 156.011 35.0076 155.83 35.0455C155.648 35.0871 155.42 35.1098 155.148 35.1136C154.701 35.1212 154.284 35.0417 153.898 34.875C153.511 34.7083 153.199 34.4508 152.96 34.1023C152.722 33.7538 152.602 33.3163 152.602 32.7898V24.1818ZM157.97 35V26.2727H159.669V35H157.97ZM158.828 24.9261C158.533 24.9261 158.279 24.8277 158.067 24.6307C157.858 24.4299 157.754 24.1913 157.754 23.9148C157.754 23.6345 157.858 23.3958 158.067 23.1989C158.279 22.9981 158.533 22.8977 158.828 22.8977C159.124 22.8977 159.375 22.9981 159.584 23.1989C159.796 23.3958 159.902 23.6345 159.902 23.9148C159.902 24.1913 159.796 24.4299 159.584 24.6307C159.375 24.8277 159.124 24.9261 158.828 24.9261ZM165.631 35.1761C164.786 35.1761 164.059 34.9848 163.449 34.6023C162.843 34.2159 162.377 33.6837 162.051 33.0057C161.725 32.3277 161.562 31.5511 161.562 30.6761C161.562 29.7898 161.729 29.0076 162.062 28.3295C162.396 27.6477 162.866 27.1155 163.472 26.733C164.078 26.3504 164.792 26.1591 165.614 26.1591C166.277 26.1591 166.867 26.2822 167.386 26.5284C167.905 26.7708 168.324 27.1117 168.642 27.5511C168.964 27.9905 169.155 28.5038 169.216 29.0909H167.562C167.472 28.6818 167.263 28.3295 166.938 28.0341C166.616 27.7386 166.184 27.5909 165.642 27.5909C165.169 27.5909 164.754 27.7159 164.398 27.9659C164.045 28.2121 163.771 28.5644 163.574 29.0227C163.377 29.4773 163.278 30.0152 163.278 30.6364C163.278 31.2727 163.375 31.822 163.568 32.2841C163.761 32.7462 164.034 33.1042 164.386 33.358C164.742 33.6117 165.161 33.7386 165.642 33.7386C165.964 33.7386 166.256 33.6799 166.517 33.5625C166.782 33.4413 167.004 33.2689 167.182 33.0455C167.364 32.822 167.491 32.553 167.562 32.2386H169.216C169.155 32.803 168.972 33.3068 168.665 33.75C168.358 34.1932 167.947 34.5417 167.432 34.7955C166.92 35.0492 166.32 35.1761 165.631 35.1761ZM177.572 28.4034L176.033 28.6761C175.968 28.4792 175.866 28.2917 175.726 28.1136C175.589 27.9356 175.404 27.7898 175.169 27.6761C174.934 27.5625 174.641 27.5057 174.288 27.5057C173.807 27.5057 173.406 27.6136 173.084 27.8295C172.762 28.0417 172.601 28.3163 172.601 28.6534C172.601 28.9451 172.709 29.1799 172.925 29.358C173.141 29.536 173.489 29.6818 173.97 29.7955L175.357 30.1136C176.16 30.2992 176.758 30.5852 177.152 30.9716C177.546 31.358 177.743 31.8598 177.743 32.4773C177.743 33 177.591 33.4659 177.288 33.875C176.989 34.2803 176.571 34.5985 176.033 34.8295C175.499 35.0606 174.879 35.1761 174.175 35.1761C173.197 35.1761 172.4 34.9678 171.783 34.5511C171.165 34.1307 170.786 33.5341 170.646 32.7614L172.288 32.5114C172.391 32.9394 172.601 33.2633 172.919 33.483C173.237 33.6989 173.652 33.8068 174.163 33.8068C174.72 33.8068 175.165 33.6913 175.499 33.4602C175.832 33.2254 175.999 32.9394 175.999 32.6023C175.999 32.3295 175.896 32.1004 175.692 31.9148C175.491 31.7292 175.182 31.589 174.766 31.4943L173.288 31.1705C172.474 30.9848 171.872 30.6894 171.482 30.2841C171.095 29.8788 170.902 29.3655 170.902 28.7443C170.902 28.2292 171.046 27.7784 171.334 27.392C171.622 27.0057 172.019 26.7045 172.527 26.4886C173.035 26.2689 173.616 26.1591 174.271 26.1591C175.214 26.1591 175.957 26.3636 176.499 26.7727C177.04 27.178 177.398 27.7216 177.572 28.4034Z" fill="#686882"/>
</svg>
