<svg width="36" height="36" viewBox="0 0 36 36" fill="none" xmlns="http://www.w3.org/2000/svg">
<path d="M24 6C24 4.335 25.335 3 27 3C28.665 3 30 4.335 30 6C30 7.665 28.665 9 27 9C25.335 9 24 7.665 24 6ZM30 33V24H33.75L29.94 12.555C29.4923 11.8528 28.8583 11.2888 28.1087 10.9259C27.3592 10.563 26.5235 10.4156 25.695 10.5H24C22.8 10.5 21.69 11.055 20.985 11.985L16.515 17.49C16.2 17.835 15.675 18 15 18C14.325 18 13.8 17.835 13.485 17.49L9.015 11.985C8.31 11.055 7.2 10.5 6 10.5H4.305C2.34 10.5 0.705 11.76 0.06 13.605L0 14.25V24H3V33H9V24H12V33H18V24H21V33H27H30Z" fill="white"/>
</svg>
