<svg width="11" height="27" viewBox="0 0 11 27" fill="none" xmlns="http://www.w3.org/2000/svg">
<g clip-path="url(#clip0_254_197)">
<g clip-path="url(#clip1_254_197)">
<g clip-path="url(#clip2_254_197)">
<path d="M8.93713 13.0054C8.7263 13.0054 8.53656 12.8771 8.45819 12.6809L8.06725 11.8051L7.19003 11.394C6.99571 11.3119 6.87059 11.1204 6.87471 10.9095C6.87884 10.6987 7.01083 10.5117 7.20791 10.437L8.1007 10.0988L8.45819 9.20461C8.53656 9.00891 8.72584 8.88013 8.93713 8.88013C9.14841 8.88013 9.33769 9.00845 9.41607 9.20461L9.77584 10.1043L10.6755 10.4641C10.8712 10.5424 11 10.7317 11 10.943C11 11.1543 10.8717 11.3436 10.6755 11.4219L9.77584 11.7817L9.41607 12.6814C9.33769 12.8771 9.14841 13.0054 8.93713 13.0054ZM10.3863 13.6805C9.82626 13.912 9.18645 13.9899 8.51823 13.8583C7.27161 13.6127 6.26745 12.6085 6.02179 11.3619C5.89025 10.6937 5.96771 10.0539 6.19962 9.49381C6.32061 9.20095 6.10612 8.88059 5.78943 8.88059H2.29157C1.02617 8.88059 0 9.90675 0 11.1722V17.5886C0 18.854 1.02617 19.8801 2.29157 19.8801H8.70797C9.97338 19.8801 10.9995 18.854 10.9995 17.5886V14.0907C10.9995 13.774 10.6792 13.5595 10.3863 13.6805ZM6.27799 17.5886C6.07496 17.5886 5.89713 17.4538 5.84167 17.2586L5.54698 16.2136H3.16099L2.8663 17.2586C2.8113 17.4538 2.63302 17.5886 2.42998 17.5886C2.13024 17.5886 1.913 17.3026 1.99321 17.0138L3.40986 11.9229C3.47448 11.6442 3.65781 11.4096 3.91309 11.2789C4.17341 11.1451 4.47223 11.1369 4.75593 11.256C5.02496 11.3688 5.2312 11.6305 5.30774 11.9595L6.71522 17.0143C6.79543 17.303 6.57818 17.5886 6.27799 17.5886ZM8.70797 17.1302C8.70797 17.3832 8.50265 17.5886 8.24966 17.5886C7.99667 17.5886 7.79134 17.3832 7.79134 17.1302V14.879C7.79134 14.626 7.99667 14.4207 8.24966 14.4207C8.50265 14.4207 8.70797 14.626 8.70797 14.879V17.1302ZM4.30357 12.1644L3.41948 15.297H5.28803L4.40394 12.1644C4.39065 12.1122 4.3164 12.1122 4.30357 12.1644Z" fill="white"/>
</g>
</g>
</g>
<defs>
<clipPath id="clip0_254_197">
<rect width="11" height="11" fill="white" transform="translate(0 8.88013)"/>
</clipPath>
<clipPath id="clip1_254_197">
<rect width="11" height="11" fill="white" transform="translate(0 8.88013)"/>
</clipPath>
<clipPath id="clip2_254_197">
<rect width="11" height="11" fill="white" transform="translate(0 8.88013)"/>
</clipPath>
</defs>
</svg>
