<svg xmlns="http://www.w3.org/2000/svg" width="24" height="24" viewBox="0 0 24 24" fill="none"><path d="M17.5 11C13.916 11 11 13.916 11 17.5C11 21.084 13.916 24 17.5 24C21.084 24 24 21.084 24 17.5C24 13.916 21.084 11 17.5 11ZM17.5 23C14.468 23 12 20.533 12 17.5C12 14.467 14.468 12 17.5 12C20.532 12 23 14.467 23 17.5C23 20.533 20.532 23 17.5 23ZM18 17.293L19.854 19.147L19.147 19.854L17.001 17.708V14.501H18.001V17.294L18 17.293ZM21.5 2H18V0H17V2H7V0H6V2H2.5C1.122 2 0 3.122 0 4.5V24H12.028C11.666 23.695 11.332 23.36 11.025 23H1V9H23V11.026C23.36 11.332 23.695 11.667 24 12.029V4.5C24 3.122 22.879 2 21.5 2ZM1 8V4.5C1 3.673 1.673 3 2.5 3H21.5C22.327 3 23 3.673 23 4.5V8H1Z" fill="black"></path></svg>