<svg width="23" height="23" viewBox="0 0 23 23" fill="none" xmlns="http://www.w3.org/2000/svg">
<path d="M11.5003 11.0207C10.8649 11.0207 10.2555 10.7683 9.80622 10.3189C9.35691 9.86964 9.10449 9.26025 9.10449 8.62484C9.10449 7.98942 9.35691 7.38003 9.80622 6.93073C10.2555 6.48142 10.8649 6.229 11.5003 6.229C12.1357 6.229 12.7451 6.48142 13.1944 6.93073C13.6437 7.38003 13.8962 7.98942 13.8962 8.62484C13.8962 8.93946 13.8342 9.25101 13.7138 9.54168C13.5934 9.83236 13.4169 10.0965 13.1944 10.3189C12.972 10.5414 12.7078 10.7179 12.4172 10.8383C12.1265 10.9587 11.815 11.0207 11.5003 11.0207ZM11.5003 1.9165C9.72116 1.9165 8.01487 2.62327 6.75682 3.88133C5.49876 5.13939 4.79199 6.84568 4.79199 8.62484C4.79199 13.6561 11.5003 21.0832 11.5003 21.0832C11.5003 21.0832 18.2087 13.6561 18.2087 8.62484C18.2087 6.84568 17.5019 5.13939 16.2438 3.88133C14.9858 2.62327 13.2795 1.9165 11.5003 1.9165Z" fill="white"/>
</svg>
