<svg width="132" height="30" viewBox="0 0 132 30" fill="none" xmlns="http://www.w3.org/2000/svg">
<path fill-rule="evenodd" clip-rule="evenodd" d="M4.07209 12.5458V6.13657C4.07681 5.15374 4.6538 4.58527 5.71797 4.36852L19.064 4.37739C19.4835 4.38645 19.3499 4.84412 19.1219 5.03167L1.01481 21.3862V18.8078L13.7131 7.02069L10.5776 6.94696L4.07166 12.546L4.07209 12.5458Z" fill="#6C0D11" stroke="#6C0D11" stroke-width="0.755769" stroke-miterlimit="22.9256"/>
<path fill-rule="evenodd" clip-rule="evenodd" d="M1 25.4551L1.01415 28.3011L27.2975 4.08046L27.2803 1.19522L1 25.4551Z" fill="#6C0D11" stroke="#6C0D11" stroke-width="0.755769" stroke-miterlimit="22.9256"/>
<path fill-rule="evenodd" clip-rule="evenodd" d="M24.6023 17.4531V23.8623C24.5976 24.845 24.0204 25.4136 22.9562 25.6304L9.6104 25.6215C9.19073 25.6127 9.32426 25.1548 9.55231 24.9674L27.3132 8.92551L27.3019 11.5231L14.9609 22.9782L18.0964 23.0519L24.6025 17.4529L24.6023 17.4531Z" fill="#6C0D11" stroke="#6C0D11" stroke-width="0.755769" stroke-miterlimit="22.9256"/>
<path d="M38.0317 20.5135C40.2647 17.1591 42.7904 13.2888 45.1513 9.53898C45.3161 9.28094 45.371 9.16048 45.371 9.04001C45.371 8.91975 45.2797 8.86798 45.0964 8.86798H39.0384C38.0866 8.86798 37.208 8.88511 35.4693 8.81642C35.0668 8.79909 34.8653 8.69595 34.7192 8.69595C34.6276 8.69595 34.5543 8.78197 34.5177 9.02289C34.4262 9.67637 34.1334 11.5169 34.1334 11.8439C34.1334 12.0675 34.1516 12.1535 34.2795 12.1535C34.3893 12.1535 34.4628 12.033 34.5359 11.8265C34.7374 11.1557 35.0668 10.6397 35.5791 10.3989C36.0918 10.158 36.7688 10.072 38.1414 10.072H41.253C38.9469 13.65 36.3114 17.6234 34.0418 20.9778C33.8222 21.3045 33.7306 21.4423 33.7306 21.5797C33.7306 21.7002 33.877 21.7519 34.0601 21.7519C38.3063 21.7519 41.3627 21.8377 44.4193 21.8377C44.767 21.8377 44.8403 21.6313 44.9136 21.3907C45.1151 20.8058 45.4261 19.2748 45.4261 18.7934C45.4261 18.5182 45.3712 18.4322 45.2612 18.4322C45.1515 18.4322 45.0964 18.5009 45.0415 18.7074C45.0051 18.8796 44.9502 19.0514 44.8585 19.275C44.5473 20.1525 43.7605 20.5137 41.619 20.5137H38.0317V20.5135Z" fill="#201E1E"/>
<path d="M53.2592 16.8324C53.2592 17.8989 53.2409 18.9137 53.2043 19.6019C53.1678 20.6856 53.0945 21.3393 52.5821 21.408C52.4357 21.4424 52.2526 21.4595 52.0329 21.4767C51.7584 21.4767 51.6669 21.5627 51.6669 21.6489C51.6669 21.7692 51.7766 21.8209 52.106 21.8209C53.1128 21.8209 53.8814 21.7694 54.7415 21.7694C56.6634 21.7694 58.036 21.8725 60.5618 21.8725C61.2389 21.8725 61.367 21.8554 61.4952 21.408C61.5867 21.0812 61.788 19.7739 61.788 19.1029C61.788 18.8964 61.7698 18.7246 61.6232 18.7246C61.5134 18.7246 61.4401 18.8277 61.4035 19.0342C61.2387 19.8255 61.0192 20.204 60.5067 20.3929C59.9942 20.5823 59.2803 20.5994 58.8047 20.5994C56.7732 20.5994 56.5168 20.3242 56.4986 19.12C56.4802 18.4665 56.4986 17.4517 56.4986 16.8669V15.6798C56.4986 15.5424 56.5168 15.4562 56.6084 15.4562C57.1757 15.4562 58.6763 15.4907 59.189 15.5249C60.0857 15.5765 60.3421 15.869 60.4152 16.3679C60.4336 16.5053 60.4518 16.626 60.47 16.7636C60.5067 16.9185 60.5433 17.0387 60.6715 17.0387C60.7813 17.0387 60.8363 16.9356 60.8363 16.712C60.8363 16.5226 60.8363 15.6798 60.8546 15.2842C60.9094 14.6134 61.001 13.9942 61.001 13.8219C61.001 13.7188 61.001 13.6154 60.8912 13.6154C60.7997 13.6154 60.7448 13.6843 60.6349 13.8392C60.4336 14.1489 60.1957 14.2004 59.2989 14.2347C58.64 14.252 57.1575 14.2691 56.645 14.252C56.5171 14.252 56.4988 14.166 56.4988 14.0455V10.2613C56.4988 10.141 56.5353 10.0892 56.645 10.0892C57.1941 10.0892 58.7864 10.1235 59.3902 10.175C60.269 10.2439 60.5067 10.4675 60.5984 10.8632C60.6715 11.1039 60.6897 11.2759 60.6897 11.4651C60.7082 11.62 60.7813 11.706 60.873 11.706C60.9827 11.706 61.056 11.6028 61.056 11.4651C61.1109 10.5707 61.1476 9.96856 61.2024 9.6245C61.2573 9.12573 61.2937 8.9537 61.2937 8.86789C61.2937 8.78187 61.2755 8.71298 61.184 8.71298C61.1109 8.71298 61.0192 8.74723 60.8912 8.78167C60.7082 8.81612 60.269 8.85036 59.9029 8.85036C59.6101 8.85036 55.1258 8.86769 54.7415 8.86769C53.9365 8.86769 53.0579 8.81612 52.0145 8.81612C51.7217 8.81612 51.612 8.86769 51.612 8.97103C51.612 9.07417 51.7035 9.14306 51.9414 9.16018C52.1245 9.1775 52.3806 9.1775 52.5454 9.21175C53.003 9.31489 53.1678 9.60738 53.2043 10.1063C53.2409 10.6569 53.2592 11.0007 53.2592 13.8046V16.832V16.8324Z" fill="#201E1E"/>
<path d="M69.8389 16.8323C69.8389 18.5007 69.8024 19.722 69.7291 20.4446C69.6561 21.0982 69.4912 21.3392 69.1251 21.4079C68.9421 21.4423 68.7591 21.4594 68.576 21.4765C68.3745 21.4765 68.2284 21.5281 68.2284 21.6488C68.2284 21.769 68.3381 21.8208 68.5942 21.8208C69.2167 21.8208 71.2115 21.7692 71.303 21.7692C71.4678 21.7692 73.4078 21.8208 74.6706 21.8208C74.9452 21.8208 75.0365 21.7521 75.0365 21.6659C75.0365 21.5283 74.9634 21.4765 74.6889 21.4765C74.4692 21.4594 74.1397 21.4423 73.8836 21.3907C73.3345 21.2876 73.2065 20.9607 73.1699 20.4619C73.0786 19.7393 73.0786 18.1741 73.0786 16.8323V10.2615C73.0786 9.96905 73.1516 9.86591 73.2983 9.83167C73.408 9.81434 73.5544 9.79722 73.7925 9.79722C74.4329 9.79722 75.0554 10.0208 75.531 10.5025C76.1901 11.1733 76.428 12.1192 76.428 13.3061C76.428 14.8542 75.6958 15.9724 74.1768 15.9724C73.8474 15.9724 73.7741 16.0411 73.7741 16.1444C73.7741 16.2476 73.8656 16.282 73.9756 16.3166C74.1035 16.3509 74.4147 16.3682 74.5429 16.3682C77.0688 16.3682 79.6494 14.9404 79.6494 12.2915C79.6494 11.1219 79.0637 10.3651 78.6611 10.0039C77.929 9.36734 76.721 8.81701 74.2319 8.81701C73.3898 8.81701 72.3648 8.86858 71.4865 8.86858C71.1755 8.86858 69.3086 8.81701 68.5216 8.81701C68.1739 8.81701 68.119 8.8857 68.119 8.98904C68.119 9.09218 68.2104 9.16107 68.4485 9.16107C68.6682 9.17839 68.9059 9.17839 69.144 9.22996C69.5832 9.31578 69.748 9.62539 69.7844 10.1072C69.8393 10.6578 69.8393 11.9134 69.8393 13.8055V16.8329L69.8389 16.8323Z" fill="#201E1E"/>
<path d="M90.7021 13.9768C90.7021 11.1387 90.7203 10.7947 90.7569 10.2443C90.7934 9.64222 90.9218 9.31528 91.4158 9.22947C91.6719 9.1779 91.855 9.1779 92.038 9.16057C92.2944 9.16057 92.4772 9.12633 92.4772 8.97142C92.4772 8.86828 92.3675 8.81651 92.038 8.81651C91.3792 8.81651 89.1096 8.86808 88.9449 8.86808C88.2312 8.86808 87.2796 8.81651 86.2364 8.81651C85.8703 8.81651 85.6873 8.85076 85.6873 8.98854C85.6873 9.12613 85.8703 9.16057 86.0716 9.16057C86.3461 9.1779 86.6207 9.19502 86.7853 9.24659C87.2427 9.36685 87.3711 9.65934 87.4075 10.1412C87.4442 10.6915 87.4624 11.0011 87.4624 13.805V16.8324C87.4624 17.8989 87.4442 18.9311 87.4075 19.619C87.3526 20.995 87.3344 21.3046 86.6756 21.408C86.4741 21.4424 86.2728 21.4595 86.0531 21.4767C85.797 21.4767 85.6873 21.5282 85.6873 21.6316C85.6873 21.7865 85.8334 21.8209 86.0898 21.8209C87.0965 21.8209 88.0848 21.7693 88.9449 21.7693C90.8851 21.7693 92.5871 21.8725 95.1129 21.8725C95.845 21.8725 95.9914 21.8554 96.1378 21.408C96.3209 20.909 96.5221 19.2749 96.5221 18.8795C96.5221 18.6386 96.5039 18.5525 96.3757 18.5525C96.2296 18.5525 96.1927 18.6901 96.1378 18.8795C95.9363 19.6879 95.6253 20.1351 95.1862 20.3244C94.6735 20.5825 94.0881 20.5996 93.0814 20.5996C91.5622 20.5996 91.2145 20.5138 90.9582 20.1868C90.6472 19.8256 90.7021 18.5872 90.7021 16.8498V13.9772V13.9768Z" fill="#201E1E"/>
<path d="M106.422 13.805C106.422 11.6032 106.44 10.7947 106.477 10.2443C106.513 9.69379 106.605 9.3326 107.117 9.22947C107.3 9.19502 107.556 9.1779 107.721 9.16057C107.959 9.14345 108.051 9.109 108.051 8.97142C108.051 8.86828 107.959 8.81651 107.648 8.81651C106.989 8.81651 104.811 8.86808 104.665 8.86808C104.5 8.86808 102.652 8.81651 101.864 8.81651C101.517 8.81651 101.37 8.86808 101.37 8.97142C101.37 9.07456 101.48 9.14345 101.755 9.16057C101.919 9.1779 102.34 9.21214 102.541 9.28104C102.962 9.4013 103.072 9.62489 103.109 10.1067C103.164 10.6573 103.164 11.1387 103.164 13.805V16.4197C103.164 18.8966 103.896 20.1524 104.866 20.9092C106 21.838 107.611 22.0618 109.222 22.0618C110.466 22.0618 111.894 21.8209 113.029 20.9265C114.804 19.5676 114.895 17.4519 114.895 15.4908V13.8052C114.895 11.2767 114.914 10.8293 114.95 10.279C115.005 9.57373 115.152 9.31568 115.646 9.22987C115.902 9.1783 116.012 9.1783 116.213 9.16098C116.451 9.14385 116.524 9.07516 116.524 8.98895C116.524 8.86869 116.415 8.81692 116.14 8.81692C115.243 8.81692 114.054 8.86848 113.724 8.86848C113.431 8.86848 112.315 8.81692 111.272 8.81692C110.942 8.81692 110.851 8.88561 110.851 8.98895C110.851 9.09208 110.942 9.16098 111.18 9.16098C111.546 9.19542 111.656 9.19542 111.857 9.22987C112.461 9.33301 112.608 9.6253 112.644 10.279C112.681 10.8295 112.681 11.2767 112.681 13.8052V15.8694C112.681 17.6412 112.681 19.4473 111.656 20.2728C111.015 20.7889 110.228 20.9092 109.643 20.9092C109.185 20.9092 108.563 20.8921 107.812 20.4276C106.806 19.7568 106.421 18.759 106.421 16.3852V13.8052L106.422 13.805Z" fill="#201E1E"/>
<path d="M125.875 22.0617C126.827 22.0617 127.998 21.9242 129.06 21.3221C130.432 20.5654 131 19.3957 131 18.2088C131 16.4714 130.195 15.4049 127.632 13.8053L126.699 13.2205C125.454 12.4291 125.235 11.7583 125.235 11.1735C125.235 10.382 125.784 9.59095 127.284 9.59095C128.602 9.59095 129.444 10.1757 129.792 10.7263C130.048 11.1219 130.103 11.552 130.121 11.7238C130.158 11.9992 130.231 12.0507 130.323 12.0507C130.469 12.0507 130.524 11.9303 130.524 11.6207C130.524 10.0899 130.561 9.74586 130.597 9.19532C130.597 9.05774 130.542 9.00597 130.359 8.9544C130.066 8.86859 129.755 8.79949 129.462 8.74792C128.694 8.61054 128.145 8.57589 127.358 8.57589C124.429 8.57589 122.691 10.1755 122.691 12.1539C122.691 13.6675 123.313 14.8717 125.546 16.3509L126.68 17.0906C128.236 18.0881 128.383 18.6902 128.383 19.4128C128.383 20.1525 127.852 20.9953 126.113 20.9953C124.686 20.9953 123.313 20.1867 123.002 18.7764C122.947 18.57 122.928 18.4153 122.91 18.243C122.892 18.1056 122.873 17.9507 122.745 17.9507C122.636 17.9507 122.562 18.0539 122.526 18.3635C122.471 18.8451 122.416 19.4988 122.416 20.892C122.416 21.236 122.507 21.4596 122.818 21.5799C123.532 21.8895 124.502 22.0617 125.875 22.0617H125.875Z" fill="#201E1E"/>
<path d="M38.0317 20.5135C40.2647 17.1591 42.7904 13.2888 45.1513 9.53898C45.3161 9.28094 45.371 9.16048 45.371 9.04001C45.371 8.91975 45.2797 8.86798 45.0964 8.86798H39.0384C38.0866 8.86798 37.208 8.88511 35.4693 8.81642C35.0668 8.79909 34.8653 8.69595 34.7192 8.69595C34.6276 8.69595 34.5543 8.78197 34.5177 9.02289C34.4262 9.67637 34.1334 11.5169 34.1334 11.8439C34.1334 12.0675 34.1516 12.1535 34.2795 12.1535C34.3893 12.1535 34.4628 12.033 34.5359 11.8265C34.7374 11.1557 35.0668 10.6397 35.5791 10.3989C36.0918 10.158 36.7688 10.072 38.1414 10.072H41.253C38.9469 13.65 36.3114 17.6234 34.0418 20.9778C33.8222 21.3045 33.7306 21.4423 33.7306 21.5797C33.7306 21.7002 33.877 21.7519 34.0601 21.7519C38.3063 21.7519 41.3627 21.8377 44.4193 21.8377C44.767 21.8377 44.8403 21.6313 44.9136 21.3907C45.1151 20.8058 45.4261 19.2748 45.4261 18.7934C45.4261 18.5182 45.3712 18.4322 45.2612 18.4322C45.1515 18.4322 45.0964 18.5009 45.0415 18.7074C45.0051 18.8796 44.9502 19.0514 44.8585 19.275C44.5473 20.1525 43.7605 20.5137 41.619 20.5137H38.0317V20.5135Z" stroke="#201E1E" stroke-width="0.288154" stroke-miterlimit="22.9256"/>
<path d="M53.2592 16.8325C53.2592 17.8989 53.2409 18.9137 53.2043 19.6019C53.1678 20.6856 53.0945 21.3393 52.5821 21.408C52.4357 21.4424 52.2526 21.4595 52.0329 21.4767C51.7584 21.4767 51.6669 21.5627 51.6669 21.6489C51.6669 21.7692 51.7766 21.8209 52.106 21.8209C53.1128 21.8209 53.8814 21.7694 54.7415 21.7694C56.6634 21.7694 58.0361 21.8725 60.5618 21.8725C61.2389 21.8725 61.367 21.8554 61.4952 21.408C61.5867 21.0812 61.788 19.7739 61.788 19.1029C61.788 18.8964 61.7698 18.7246 61.6232 18.7246C61.5134 18.7246 61.4401 18.8277 61.4035 19.0342C61.2387 19.8255 61.0192 20.204 60.5067 20.3929C59.9942 20.5823 59.2803 20.5994 58.8047 20.5994C56.7732 20.5994 56.5168 20.3242 56.4986 19.12C56.4802 18.4665 56.4986 17.4517 56.4986 16.8669V15.6798C56.4986 15.5424 56.5168 15.4562 56.6084 15.4562C57.1757 15.4562 58.6763 15.4907 59.189 15.5249C60.0857 15.5765 60.3421 15.869 60.4152 16.3679C60.4336 16.5053 60.4518 16.626 60.47 16.7636C60.5067 16.9185 60.5433 17.0387 60.6715 17.0387C60.7813 17.0387 60.8363 16.9356 60.8363 16.712C60.8363 16.5226 60.8363 15.6798 60.8546 15.2842C60.9094 14.6134 61.001 13.9942 61.001 13.8219C61.001 13.7188 61.001 13.6154 60.8912 13.6154C60.7997 13.6154 60.7448 13.6843 60.6349 13.8392C60.4336 14.1489 60.1957 14.2004 59.2989 14.2347C58.64 14.252 57.1575 14.2691 56.645 14.252C56.5171 14.252 56.4988 14.166 56.4988 14.0455V10.2613C56.4988 10.141 56.5353 10.0892 56.645 10.0892C57.1941 10.0892 58.7864 10.1235 59.3902 10.175C60.269 10.2439 60.5067 10.4675 60.5984 10.8632C60.6715 11.1039 60.6897 11.2759 60.6897 11.4651C60.7082 11.62 60.7813 11.706 60.873 11.706C60.9827 11.706 61.056 11.6028 61.056 11.4651C61.1109 10.5707 61.1476 9.96856 61.2024 9.6245C61.2573 9.12573 61.2937 8.9537 61.2937 8.86789C61.2937 8.78187 61.2755 8.71298 61.184 8.71298C61.1109 8.71298 61.0192 8.74723 60.8912 8.78167C60.7082 8.81612 60.269 8.85036 59.9029 8.85036C59.6101 8.85036 55.1258 8.86769 54.7415 8.86769C53.9365 8.86769 53.0579 8.81612 52.0145 8.81612C51.7217 8.81612 51.612 8.86769 51.612 8.97103C51.612 9.07417 51.7035 9.14306 51.9414 9.16018C52.1245 9.1775 52.3806 9.1775 52.5454 9.21175C53.003 9.31489 53.1678 9.60738 53.2043 10.1063C53.2409 10.6569 53.2592 11.0007 53.2592 13.8046V16.832V16.8325Z" stroke="#201E1E" stroke-width="0.288154" stroke-miterlimit="22.9256"/>
<path d="M69.8389 16.8323C69.8389 18.5007 69.8024 19.722 69.7291 20.4446C69.6561 21.0982 69.4912 21.3392 69.1251 21.4079C68.9421 21.4423 68.7591 21.4594 68.576 21.4765C68.3745 21.4765 68.2284 21.5281 68.2284 21.6488C68.2284 21.769 68.3381 21.8208 68.5942 21.8208C69.2167 21.8208 71.2115 21.7692 71.303 21.7692C71.4678 21.7692 73.4078 21.8208 74.6706 21.8208C74.9452 21.8208 75.0365 21.7521 75.0365 21.6659C75.0365 21.5283 74.9634 21.4765 74.6889 21.4765C74.4692 21.4594 74.1397 21.4423 73.8836 21.3907C73.3345 21.2876 73.2065 20.9607 73.1699 20.4619C73.0786 19.7393 73.0786 18.1741 73.0786 16.8323V10.2615C73.0786 9.96905 73.1516 9.86591 73.2983 9.83167C73.408 9.81434 73.5544 9.79722 73.7925 9.79722C74.4329 9.79722 75.0554 10.0208 75.531 10.5025C76.1901 11.1733 76.428 12.1192 76.428 13.3061C76.428 14.8542 75.6958 15.9724 74.1768 15.9724C73.8474 15.9724 73.7741 16.0411 73.7741 16.1444C73.7741 16.2475 73.8656 16.282 73.9756 16.3166C74.1035 16.3509 74.4147 16.3682 74.5429 16.3682C77.0688 16.3682 79.6494 14.9404 79.6494 12.2915C79.6494 11.1219 79.0637 10.3651 78.6611 10.0039C77.929 9.36734 76.721 8.81701 74.2319 8.81701C73.3898 8.81701 72.3648 8.86858 71.4865 8.86858C71.1755 8.86858 69.3086 8.81701 68.5216 8.81701C68.1739 8.81701 68.119 8.8857 68.119 8.98904C68.119 9.09218 68.2104 9.16107 68.4485 9.16107C68.6682 9.17839 68.9059 9.17839 69.144 9.22996C69.5832 9.31578 69.748 9.62539 69.7844 10.1072C69.8393 10.6578 69.8393 11.9134 69.8393 13.8055V16.8329L69.8389 16.8323Z" stroke="#201E1E" stroke-width="0.288154" stroke-miterlimit="22.9256"/>
<path d="M90.7021 13.9768C90.7021 11.1387 90.7203 10.7947 90.7569 10.2443C90.7934 9.64222 90.9218 9.31528 91.4158 9.22947C91.6719 9.1779 91.855 9.1779 92.038 9.16057C92.2944 9.16057 92.4772 9.12633 92.4772 8.97142C92.4772 8.86828 92.3675 8.81651 92.038 8.81651C91.3792 8.81651 89.1096 8.86808 88.9449 8.86808C88.2312 8.86808 87.2796 8.81651 86.2364 8.81651C85.8703 8.81651 85.6873 8.85076 85.6873 8.98854C85.6873 9.12613 85.8703 9.16057 86.0716 9.16057C86.3461 9.1779 86.6207 9.19502 86.7853 9.24659C87.2427 9.36685 87.3711 9.65934 87.4075 10.1412C87.4442 10.6915 87.4624 11.0011 87.4624 13.805V16.8324C87.4624 17.8989 87.4442 18.9311 87.4075 19.619C87.3526 20.995 87.3344 21.3046 86.6756 21.408C86.4741 21.4424 86.2728 21.4595 86.0531 21.4767C85.797 21.4767 85.6873 21.5282 85.6873 21.6316C85.6873 21.7865 85.8334 21.8209 86.0898 21.8209C87.0965 21.8209 88.0848 21.7693 88.9449 21.7693C90.8851 21.7693 92.5871 21.8725 95.1129 21.8725C95.845 21.8725 95.9914 21.8554 96.1378 21.408C96.3209 20.909 96.5221 19.2749 96.5221 18.8795C96.5221 18.6386 96.5039 18.5525 96.3757 18.5525C96.2296 18.5525 96.1927 18.6901 96.1378 18.8795C95.9363 19.6879 95.6253 20.1351 95.1862 20.3244C94.6735 20.5825 94.0881 20.5996 93.0814 20.5996C91.5622 20.5996 91.2145 20.5138 90.9582 20.1868C90.6472 19.8256 90.7021 18.5872 90.7021 16.8498V13.9772V13.9768Z" stroke="#201E1E" stroke-width="0.288154" stroke-miterlimit="22.9256"/>
<path d="M106.422 13.805C106.422 11.6032 106.44 10.7947 106.477 10.2443C106.513 9.69379 106.605 9.3326 107.117 9.22947C107.3 9.19502 107.556 9.1779 107.721 9.16057C107.959 9.14345 108.051 9.109 108.051 8.97142C108.051 8.86828 107.959 8.81651 107.648 8.81651C106.989 8.81651 104.811 8.86808 104.665 8.86808C104.5 8.86808 102.652 8.81651 101.864 8.81651C101.517 8.81651 101.37 8.86808 101.37 8.97142C101.37 9.07456 101.48 9.14345 101.755 9.16057C101.919 9.1779 102.34 9.21214 102.541 9.28104C102.962 9.4013 103.072 9.62489 103.109 10.1067C103.164 10.6573 103.164 11.1387 103.164 13.805V16.4197C103.164 18.8966 103.896 20.1524 104.866 20.9092C106 21.838 107.611 22.0618 109.222 22.0618C110.466 22.0618 111.894 21.8209 113.029 20.9265C114.804 19.5676 114.895 17.4519 114.895 15.4908V13.8052C114.895 11.2767 114.914 10.8293 114.95 10.279C115.005 9.57373 115.152 9.31568 115.646 9.22987C115.902 9.1783 116.012 9.1783 116.213 9.16098C116.451 9.14385 116.524 9.07516 116.524 8.98895C116.524 8.86869 116.415 8.81692 116.14 8.81692C115.243 8.81692 114.054 8.86848 113.724 8.86848C113.431 8.86848 112.315 8.81692 111.272 8.81692C110.942 8.81692 110.851 8.88561 110.851 8.98895C110.851 9.09208 110.942 9.16098 111.18 9.16098C111.546 9.19542 111.656 9.19542 111.857 9.22987C112.461 9.33301 112.608 9.6253 112.644 10.279C112.681 10.8295 112.681 11.2767 112.681 13.8052V15.8694C112.681 17.6412 112.681 19.4473 111.656 20.2728C111.015 20.7889 110.228 20.9092 109.643 20.9092C109.185 20.9092 108.563 20.8921 107.812 20.4276C106.806 19.7568 106.421 18.759 106.421 16.3852V13.8052L106.422 13.805Z" stroke="#201E1E" stroke-width="0.288154" stroke-miterlimit="22.9256"/>
<path d="M125.875 22.0617C126.827 22.0617 127.998 21.9242 129.06 21.3221C130.432 20.5654 131 19.3957 131 18.2088C131 16.4714 130.195 15.4049 127.632 13.8053L126.699 13.2205C125.454 12.4291 125.235 11.7583 125.235 11.1735C125.235 10.382 125.784 9.59095 127.284 9.59095C128.602 9.59095 129.444 10.1757 129.792 10.7263C130.048 11.1219 130.103 11.552 130.121 11.7238C130.158 11.9992 130.231 12.0507 130.323 12.0507C130.469 12.0507 130.524 11.9303 130.524 11.6207C130.524 10.0899 130.561 9.74586 130.597 9.19532C130.597 9.05774 130.542 9.00597 130.359 8.9544C130.066 8.86859 129.755 8.79949 129.462 8.74792C128.694 8.61054 128.145 8.57589 127.358 8.57589C124.429 8.57589 122.691 10.1755 122.691 12.1539C122.691 13.6675 123.313 14.8717 125.546 16.3509L126.68 17.0906C128.236 18.0881 128.383 18.6902 128.383 19.4128C128.383 20.1525 127.852 20.9953 126.113 20.9953C124.686 20.9953 123.313 20.1867 123.002 18.7764C122.947 18.57 122.928 18.4153 122.91 18.243C122.892 18.1056 122.873 17.9507 122.745 17.9507C122.636 17.9507 122.562 18.0539 122.526 18.3635C122.471 18.8451 122.416 19.4988 122.416 20.892C122.416 21.236 122.507 21.4596 122.818 21.5799C123.532 21.8895 124.502 22.0617 125.875 22.0617H125.875Z" stroke="#201E1E" stroke-width="0.288154" stroke-miterlimit="22.9256"/>
<path d="M49.1036 28.1167C49.1124 28.1167 49.1241 28.1223 49.1269 28.1332L49.3228 28.5701C49.3316 28.5949 49.3198 28.614 49.2879 28.6196C49.2615 28.6251 49.247 28.636 49.247 28.6525C49.247 28.669 49.2645 28.6773 49.3115 28.6773C49.4986 28.6801 49.8317 28.6855 50.1182 28.6855C50.1737 28.6855 50.1943 28.6773 50.1943 28.6581C50.1943 28.6418 50.1767 28.6307 50.1388 28.6307C50.1124 28.6279 50.0775 28.6279 50.0451 28.6198C49.9429 28.6059 49.8786 28.5401 49.7792 28.3257C49.5805 27.908 49.0892 26.8556 49.0131 26.7017C48.9634 26.6028 48.937 26.5644 48.9079 26.5644C48.8757 26.5644 48.8436 26.6054 48.7881 26.7237L48.0075 28.3834C47.9462 28.5151 47.8876 28.6005 47.7854 28.6198C47.7563 28.6253 47.7267 28.6281 47.6917 28.6307C47.6568 28.6307 47.6362 28.6362 47.6362 28.6581C47.6362 28.6746 47.6538 28.6855 47.6947 28.6855C47.8409 28.6855 48.0338 28.6773 48.066 28.6773C48.2209 28.6773 48.3204 28.6855 48.452 28.6855C48.4899 28.6855 48.5133 28.6801 48.5133 28.6581C48.5133 28.6444 48.5045 28.6307 48.4606 28.6307C48.4372 28.6279 48.3905 28.6253 48.3581 28.6198C48.2968 28.6142 48.2705 28.5894 48.2705 28.5373C48.2705 28.5044 48.288 28.4329 48.3172 28.3614L48.4076 28.1362C48.4136 28.1225 48.4194 28.1169 48.434 28.1169H49.1036V28.1167ZM48.5189 27.8969C48.5099 27.8969 48.5041 27.8914 48.5071 27.8832L48.7557 27.2952C48.7615 27.2815 48.7673 27.2758 48.7761 27.2952L49.0335 27.8832C49.0365 27.8886 49.0365 27.8969 49.0189 27.8969H48.5189Z" fill="#201E1E"/>
<path d="M60.3027 28.7239C60.4898 28.7239 60.6887 28.7045 60.8055 28.6606C60.8552 28.6443 60.8758 28.6223 60.8816 28.581C60.9107 28.4493 60.9461 28.21 60.9461 28.1632C60.9461 28.1413 60.9431 28.1137 60.9227 28.1137C60.8994 28.1137 60.8906 28.133 60.876 28.1906C60.8527 28.2732 60.8205 28.3337 60.7796 28.3748C60.6655 28.4956 60.5164 28.5148 60.2767 28.5148C59.7857 28.5148 59.4582 28.1356 59.4582 27.5696C59.4582 27.2755 59.5371 27.0201 59.7156 26.8744C59.8296 26.781 59.973 26.7427 60.1454 26.7427C60.4289 26.7427 60.6336 26.8142 60.7361 26.9157C60.8325 27.0146 60.8443 27.1244 60.8471 27.185C60.8501 27.2233 60.8587 27.2427 60.882 27.2427C60.9084 27.2427 60.9144 27.2179 60.9172 27.1766C60.923 27.1081 60.9202 26.9457 60.926 26.8551C60.9318 26.7618 60.9408 26.6957 60.9408 26.6738C60.9408 26.6573 60.9408 26.641 60.9084 26.6381C60.8207 26.6353 60.7504 26.6216 60.619 26.6023C60.505 26.586 60.3706 26.5694 60.2041 26.5694C59.7801 26.5694 59.4876 26.6518 59.2364 26.8525C58.941 27.0861 58.8737 27.4268 58.8737 27.6137C58.8737 27.9078 58.9556 28.1906 59.2421 28.4217C59.5493 28.6634 59.9233 28.7239 60.3033 28.7239H60.3027Z" fill="#201E1E"/>
<path d="M71.2505 28.1167C71.2593 28.1167 71.2711 28.1223 71.2739 28.1332L71.4698 28.5701C71.4786 28.5949 71.4668 28.614 71.4349 28.6196C71.4085 28.6251 71.3939 28.636 71.3939 28.6525C71.3939 28.669 71.4115 28.6773 71.4584 28.6773C71.6456 28.6801 71.9786 28.6855 72.2652 28.6855C72.3207 28.6855 72.3413 28.6773 72.3413 28.6581C72.3413 28.6418 72.3237 28.6307 72.2858 28.6307C72.2594 28.6279 72.2245 28.6279 72.1921 28.6198C72.0899 28.6059 72.0256 28.5401 71.9261 28.3257C71.7274 27.908 71.2362 26.8556 71.1601 26.7017C71.1104 26.6028 71.084 26.5644 71.0549 26.5644C71.0227 26.5644 70.9906 26.6054 70.935 26.7237L70.1544 28.3834C70.0931 28.5151 70.0346 28.6005 69.9324 28.6198C69.9032 28.6253 69.8736 28.6281 69.8387 28.6307C69.8038 28.6307 69.7832 28.6362 69.7832 28.6581C69.7832 28.6746 69.8008 28.6855 69.8417 28.6855C69.9879 28.6855 70.1808 28.6773 70.2129 28.6773C70.3679 28.6773 70.4674 28.6855 70.599 28.6855C70.6369 28.6855 70.6603 28.6801 70.6603 28.6581C70.6603 28.6444 70.6515 28.6307 70.6075 28.6307C70.5842 28.6279 70.5374 28.6253 70.5051 28.6198C70.4438 28.6142 70.4174 28.5894 70.4174 28.5373C70.4174 28.5044 70.435 28.4329 70.4641 28.3614L70.5546 28.1362C70.5606 28.1225 70.5664 28.1169 70.581 28.1169H71.2505V28.1167ZM70.6658 27.8969C70.6568 27.8969 70.651 27.8914 70.654 27.8832L70.9027 27.2952C70.9085 27.2815 70.9143 27.2758 70.923 27.2952L71.1805 27.8832C71.1835 27.8886 71.1835 27.8969 71.1659 27.8969H70.6658Z" fill="#201E1E"/>
<path d="M81.3396 27.8885C81.3396 28.125 81.3338 28.32 81.325 28.4519C81.316 28.5591 81.2869 28.6113 81.2286 28.6195C81.1964 28.625 81.1758 28.6278 81.1381 28.6304C81.1058 28.6304 81.0826 28.6387 81.0826 28.6578C81.0826 28.6717 81.0914 28.6852 81.1411 28.6852C81.223 28.6852 81.2609 28.6824 81.3428 28.6797C81.4249 28.6769 81.495 28.6769 81.5651 28.6769C81.6206 28.6769 81.7406 28.6852 81.8544 28.6963C81.9509 28.7045 82.0503 28.7071 82.1674 28.7071C82.7549 28.7071 83.0238 28.5176 83.1672 28.3802C83.3338 28.2317 83.4887 27.9598 83.4887 27.6274C83.4887 27.3003 83.3571 27.0694 83.208 26.9292C82.942 26.6738 82.5502 26.6134 82.0501 26.6107C81.8045 26.6136 81.6731 26.6162 81.5764 26.6162C81.4478 26.6162 81.1788 26.6077 81.1058 26.6077C81.0562 26.6077 81.0387 26.6162 81.0387 26.6325C81.0387 26.6464 81.0502 26.6601 81.0942 26.6629C81.1497 26.6684 81.1788 26.6684 81.2024 26.6712C81.3134 26.6821 81.3282 26.7562 81.334 26.8362C81.3398 26.924 81.3398 27.0009 81.3398 27.405V27.8885H81.3396ZM81.8572 27.3609C81.8572 27.1383 81.863 26.9405 81.8602 26.847C81.8602 26.8223 81.8632 26.8088 81.8866 26.7975C81.9129 26.7838 81.9802 26.7755 82.0445 26.7755C82.2374 26.7755 82.5152 26.8277 82.7171 27.0751C82.8397 27.2318 82.9364 27.4544 82.9364 27.7044C82.9364 27.9626 82.8982 28.2072 82.7465 28.35C82.5915 28.5011 82.419 28.5424 82.2145 28.5424C82.0859 28.5424 81.9659 28.5039 81.9132 28.4435C81.881 28.413 81.8692 28.3582 81.8634 28.2456C81.8604 28.1933 81.8576 28.0037 81.8576 27.7124V27.3607L81.8572 27.3609Z" fill="#201E1E"/>
<path d="M92.7989 27.8884C92.7989 28.0589 92.7959 28.221 92.7901 28.3308C92.7844 28.5038 92.7726 28.6084 92.6907 28.6195C92.6673 28.6249 92.638 28.6277 92.603 28.6304C92.5591 28.6304 92.5445 28.6443 92.5445 28.6577C92.5445 28.6771 92.5619 28.6851 92.6146 28.6851C92.7754 28.6851 92.8982 28.6769 93.0356 28.6769C93.3427 28.6769 93.5618 28.6934 93.9653 28.6934C94.0736 28.6934 94.0937 28.6906 94.1143 28.6193C94.1291 28.5671 94.161 28.3582 94.161 28.251C94.161 28.218 94.158 28.1904 94.1347 28.1904C94.1171 28.1904 94.1055 28.2069 94.0997 28.24C94.0734 28.3663 94.0382 28.4269 93.9563 28.4571C93.8745 28.4873 93.7605 28.4899 93.6846 28.4899C93.3601 28.4899 93.3191 28.446 93.3161 28.2537C93.3131 28.1493 93.3161 27.9872 93.3161 27.8937V27.7041C93.3161 27.6822 93.3191 27.6683 93.3337 27.6683C93.4242 27.6683 93.664 27.6737 93.7459 27.6794C93.8893 27.6876 93.93 27.7343 93.9418 27.8139C93.9448 27.8359 93.9476 27.8552 93.9506 27.8772C93.9563 27.9019 93.9621 27.9211 93.9827 27.9211C94.0003 27.9211 94.0091 27.9048 94.0091 27.8689C94.0091 27.8387 94.0091 27.7041 94.0121 27.6409C94.0211 27.5337 94.0354 27.4348 94.0354 27.4074C94.0354 27.3909 94.0354 27.3744 94.0181 27.3744C94.0033 27.3744 93.9947 27.3854 93.9771 27.4102C93.945 27.4598 93.9068 27.4678 93.7637 27.4733C93.6584 27.4761 93.4216 27.4789 93.3397 27.4761C93.3191 27.4761 93.3163 27.4624 93.3163 27.4433V26.8387C93.3163 26.8194 93.3221 26.8113 93.3397 26.8113C93.4274 26.8113 93.6818 26.8168 93.7782 26.825C93.9184 26.8361 93.9563 26.8718 93.9711 26.935C93.9827 26.9733 93.9857 27.0009 93.9857 27.0313C93.9887 27.0561 94.0005 27.0696 94.0149 27.0696C94.0324 27.0696 94.0442 27.0531 94.0442 27.0313C94.053 26.8883 94.0588 26.7922 94.0674 26.7372C94.0764 26.6574 94.0822 26.6298 94.0822 26.6163C94.0822 26.6024 94.0792 26.5916 94.0646 26.5916C94.053 26.5916 94.0382 26.597 94.0179 26.6024C93.9885 26.6079 93.9184 26.6135 93.8599 26.6135C93.8132 26.6135 93.0969 26.6163 93.0354 26.6163C92.9068 26.6163 92.7664 26.6079 92.5998 26.6079C92.5531 26.6079 92.5353 26.6163 92.5353 26.6327C92.5353 26.6492 92.5501 26.6603 92.588 26.6631C92.6172 26.6659 92.6583 26.6659 92.6845 26.6713C92.7576 26.6879 92.7839 26.7346 92.7897 26.8144C92.7955 26.9022 92.7985 26.9574 92.7985 27.4052V27.8886L92.7989 27.8884Z" fill="#201E1E"/>
<path d="M105.622 26.6711C105.613 26.6024 105.595 26.5639 105.566 26.5639C105.537 26.5639 105.514 26.5913 105.467 26.6628L104.666 27.9925L103.83 26.6763C103.768 26.5913 103.748 26.5637 103.716 26.5637C103.687 26.5637 103.666 26.5885 103.654 26.6709L103.388 28.3608C103.359 28.5423 103.33 28.6053 103.245 28.6218C103.213 28.6273 103.181 28.6273 103.157 28.6301C103.116 28.6301 103.099 28.6412 103.099 28.6575C103.099 28.6849 103.134 28.6849 103.163 28.6849C103.271 28.6849 103.409 28.6766 103.499 28.6766C103.587 28.6766 103.748 28.6849 103.876 28.6849C103.923 28.6849 103.935 28.6766 103.935 28.6547C103.935 28.6382 103.926 28.6299 103.882 28.6299C103.844 28.6271 103.818 28.6245 103.774 28.6162C103.701 28.6023 103.672 28.5695 103.672 28.4897C103.672 28.4486 103.672 28.388 103.683 28.2701L103.768 27.4952C103.824 27.5887 103.952 27.8139 104.002 27.8936C104.113 28.0695 104.291 28.3827 104.394 28.5366C104.476 28.6575 104.493 28.6851 104.525 28.6851C104.549 28.6851 104.566 28.6688 104.645 28.5286L105.247 27.468L105.353 28.4518C105.364 28.5755 105.362 28.592 105.315 28.6084C105.294 28.6138 105.283 28.6249 105.283 28.6357C105.283 28.6496 105.294 28.6662 105.35 28.6688C105.683 28.6851 105.92 28.6851 106.162 28.6851C106.209 28.6851 106.233 28.6797 106.233 28.6577C106.233 28.6384 106.215 28.6303 106.177 28.6303C106.139 28.6275 106.069 28.622 106.01 28.6055C105.914 28.5781 105.885 28.5092 105.861 28.3308L105.622 26.6711H105.622Z" fill="#201E1E"/>
<path d="M115.638 28.1852C115.638 28.2291 115.635 28.3528 115.626 28.4685C115.621 28.548 115.603 28.5976 115.527 28.6169C115.501 28.6252 115.471 28.6252 115.424 28.6306C115.39 28.6306 115.372 28.6417 115.372 28.6554C115.372 28.6747 115.389 28.6856 115.43 28.6856C115.562 28.6856 115.799 28.6773 115.884 28.6773C115.98 28.6773 116.223 28.6856 116.433 28.6856C116.477 28.6856 116.492 28.6747 116.492 28.6608C116.492 28.6417 116.48 28.6334 116.445 28.6306C116.395 28.6252 116.337 28.6252 116.284 28.6141C116.176 28.595 116.17 28.5263 116.165 28.4576C116.156 28.3422 116.156 28.2295 116.156 28.1856V27.9904C116.156 27.9522 116.159 27.8448 116.202 27.7296C116.243 27.6141 116.661 26.9409 116.761 26.8255C116.813 26.7625 116.843 26.7157 116.924 26.6855C116.96 26.6744 117 26.6662 117.039 26.6635C117.077 26.6635 117.097 26.6551 117.097 26.6331C117.097 26.614 117.074 26.6084 117.039 26.6084C116.983 26.6084 116.743 26.6168 116.702 26.6168C116.591 26.6168 116.492 26.6084 116.372 26.6084C116.325 26.6084 116.308 26.6168 116.308 26.6331C116.308 26.6525 116.331 26.6607 116.357 26.6662C116.445 26.6799 116.463 26.7044 116.463 26.7349C116.463 26.7705 116.445 26.8172 116.416 26.8749C116.36 26.9848 116.202 27.2596 116.024 27.5755C115.977 27.4931 115.612 26.8831 115.565 26.8033C115.545 26.7677 115.536 26.7429 115.536 26.7238C115.536 26.7018 115.548 26.6742 115.626 26.6662C115.67 26.6577 115.685 26.6523 115.685 26.6303C115.685 26.614 115.662 26.6084 115.629 26.6084C115.445 26.6084 115.261 26.6168 115.211 26.6168C115.1 26.6168 114.881 26.6084 114.761 26.6084C114.726 26.6084 114.702 26.614 114.702 26.6331C114.702 26.6496 114.717 26.6607 114.746 26.6635C114.77 26.6664 114.805 26.6718 114.822 26.6772C114.916 26.7046 114.948 26.7405 115.059 26.8998C115.159 27.04 115.448 27.4933 115.556 27.6802C115.606 27.7709 115.638 27.8259 115.638 27.9743V28.1858V28.1852Z" fill="#201E1E"/>
<path d="M49.1036 28.1167C49.1124 28.1167 49.1241 28.1223 49.1269 28.1332L49.3228 28.5701C49.3316 28.5949 49.3198 28.614 49.2879 28.6196C49.2615 28.6251 49.247 28.636 49.247 28.6525C49.247 28.669 49.2645 28.6773 49.3115 28.6773C49.4986 28.6801 49.8317 28.6855 50.1182 28.6855C50.1737 28.6855 50.1943 28.6773 50.1943 28.6581C50.1943 28.6418 50.1767 28.6307 50.1388 28.6307C50.1124 28.6279 50.0775 28.6279 50.0451 28.6198C49.9429 28.6059 49.8786 28.5401 49.7792 28.3257C49.5805 27.908 49.0892 26.8556 49.0131 26.7017C48.9634 26.6028 48.937 26.5644 48.9079 26.5644C48.8757 26.5644 48.8436 26.6054 48.7881 26.7237L48.0075 28.3834C47.9462 28.5151 47.8876 28.6005 47.7854 28.6198C47.7563 28.6253 47.7267 28.6281 47.6917 28.6307C47.6568 28.6307 47.6362 28.6362 47.6362 28.6581C47.6362 28.6746 47.6538 28.6855 47.6947 28.6855C47.8409 28.6855 48.0338 28.6773 48.066 28.6773C48.2209 28.6773 48.3204 28.6855 48.452 28.6855C48.4899 28.6855 48.5133 28.6801 48.5133 28.6581C48.5133 28.6444 48.5045 28.6307 48.4606 28.6307C48.4372 28.6279 48.3905 28.6253 48.3581 28.6198C48.2968 28.6142 48.2705 28.5894 48.2705 28.5373C48.2705 28.5044 48.288 28.4329 48.3172 28.3614L48.4076 28.1362C48.4136 28.1225 48.4194 28.1169 48.434 28.1169H49.1036V28.1167ZM48.5189 27.8969C48.5099 27.8969 48.5041 27.8914 48.5071 27.8832L48.7557 27.2952C48.7615 27.2815 48.7673 27.2758 48.7761 27.2952L49.0335 27.8832C49.0365 27.8886 49.0365 27.8969 49.0189 27.8969H48.5189Z" stroke="#201E1E" stroke-width="0.288154" stroke-miterlimit="22.9256"/>
<path d="M60.3027 28.7239C60.4898 28.7239 60.6887 28.7045 60.8055 28.6606C60.8552 28.6443 60.8758 28.6223 60.8816 28.581C60.9107 28.4493 60.9461 28.21 60.9461 28.1632C60.9461 28.1413 60.9431 28.1137 60.9227 28.1137C60.8994 28.1137 60.8906 28.133 60.876 28.1906C60.8527 28.2732 60.8205 28.3337 60.7796 28.3748C60.6655 28.4956 60.5164 28.5148 60.2767 28.5148C59.7857 28.5148 59.4582 28.1356 59.4582 27.5696C59.4582 27.2755 59.5371 27.0201 59.7156 26.8744C59.8296 26.781 59.973 26.7427 60.1454 26.7427C60.4289 26.7427 60.6336 26.8142 60.7361 26.9157C60.8325 27.0146 60.8443 27.1244 60.8471 27.185C60.8501 27.2233 60.8587 27.2427 60.882 27.2427C60.9084 27.2427 60.9144 27.2179 60.9172 27.1766C60.923 27.1081 60.9202 26.9457 60.926 26.8551C60.9318 26.7618 60.9408 26.6957 60.9408 26.6738C60.9408 26.6573 60.9408 26.641 60.9084 26.6381C60.8207 26.6353 60.7504 26.6216 60.619 26.6023C60.505 26.586 60.3706 26.5694 60.2041 26.5694C59.7801 26.5694 59.4876 26.6518 59.2364 26.8525C58.941 27.0861 58.8737 27.4268 58.8737 27.6137C58.8737 27.9078 58.9556 28.1906 59.2421 28.4217C59.5493 28.6634 59.9233 28.7239 60.3033 28.7239H60.3027Z" stroke="#201E1E" stroke-width="0.288154" stroke-miterlimit="22.9256"/>
<path d="M71.2505 28.1167C71.2593 28.1167 71.2711 28.1223 71.2739 28.1332L71.4698 28.5701C71.4786 28.5949 71.4668 28.614 71.4349 28.6196C71.4085 28.6251 71.3939 28.636 71.3939 28.6525C71.3939 28.669 71.4115 28.6773 71.4584 28.6773C71.6456 28.6801 71.9786 28.6855 72.2652 28.6855C72.3207 28.6855 72.3413 28.6773 72.3413 28.6581C72.3413 28.6418 72.3237 28.6307 72.2858 28.6307C72.2594 28.6279 72.2245 28.6279 72.1921 28.6198C72.0899 28.6059 72.0256 28.5401 71.9261 28.3257C71.7274 27.908 71.2362 26.8556 71.1601 26.7017C71.1104 26.6028 71.084 26.5644 71.0549 26.5644C71.0227 26.5644 70.9906 26.6054 70.935 26.7237L70.1544 28.3834C70.0931 28.5151 70.0346 28.6005 69.9324 28.6198C69.9032 28.6253 69.8736 28.6281 69.8387 28.6307C69.8038 28.6307 69.7832 28.6362 69.7832 28.6581C69.7832 28.6746 69.8008 28.6855 69.8417 28.6855C69.9879 28.6855 70.1808 28.6773 70.2129 28.6773C70.3679 28.6773 70.4674 28.6855 70.599 28.6855C70.6369 28.6855 70.6603 28.6801 70.6603 28.6581C70.6603 28.6444 70.6515 28.6307 70.6075 28.6307C70.5842 28.6279 70.5374 28.6253 70.5051 28.6198C70.4438 28.6142 70.4174 28.5894 70.4174 28.5373C70.4174 28.5044 70.435 28.4329 70.4641 28.3614L70.5546 28.1362C70.5606 28.1225 70.5664 28.1169 70.581 28.1169H71.2505V28.1167ZM70.6658 27.8969C70.6568 27.8969 70.651 27.8914 70.654 27.8832L70.9027 27.2952C70.9085 27.2815 70.9143 27.2758 70.923 27.2952L71.1805 27.8832C71.1835 27.8886 71.1835 27.8969 71.1659 27.8969H70.6658Z" stroke="#201E1E" stroke-width="0.288154" stroke-miterlimit="22.9256"/>
<path d="M81.3396 27.8885C81.3396 28.125 81.3338 28.32 81.325 28.4519C81.316 28.5591 81.2869 28.6113 81.2286 28.6195C81.1964 28.625 81.1758 28.6278 81.1381 28.6304C81.1058 28.6304 81.0826 28.6387 81.0826 28.6578C81.0826 28.6717 81.0914 28.6852 81.1411 28.6852C81.223 28.6852 81.2609 28.6824 81.3428 28.6797C81.4249 28.6769 81.495 28.6769 81.5651 28.6769C81.6206 28.6769 81.7406 28.6852 81.8544 28.6963C81.9509 28.7045 82.0503 28.7071 82.1674 28.7071C82.7549 28.7071 83.0238 28.5176 83.1672 28.3802C83.3338 28.2317 83.4887 27.9598 83.4887 27.6274C83.4887 27.3003 83.3571 27.0694 83.208 26.9292C82.942 26.6738 82.5502 26.6134 82.0501 26.6107C81.8045 26.6136 81.6731 26.6162 81.5764 26.6162C81.4478 26.6162 81.1788 26.6077 81.1058 26.6077C81.0562 26.6077 81.0387 26.6162 81.0387 26.6325C81.0387 26.6464 81.0502 26.6601 81.0942 26.6629C81.1497 26.6684 81.1788 26.6684 81.2024 26.6712C81.3134 26.6821 81.3282 26.7562 81.334 26.8362C81.3398 26.924 81.3398 27.0009 81.3398 27.405V27.8885H81.3396ZM81.8572 27.3609C81.8572 27.1383 81.863 26.9405 81.8602 26.847C81.8602 26.8223 81.8632 26.8088 81.8866 26.7975C81.9129 26.7838 81.9802 26.7755 82.0445 26.7755C82.2374 26.7755 82.5152 26.8277 82.7171 27.0751C82.8397 27.2318 82.9364 27.4544 82.9364 27.7044C82.9364 27.9626 82.8982 28.2072 82.7465 28.35C82.5915 28.5011 82.419 28.5424 82.2145 28.5424C82.0859 28.5424 81.9659 28.5039 81.9132 28.4435C81.881 28.413 81.8692 28.3582 81.8634 28.2456C81.8604 28.1933 81.8576 28.0037 81.8576 27.7124V27.3607L81.8572 27.3609Z" stroke="#201E1E" stroke-width="0.288154" stroke-miterlimit="22.9256"/>
<path d="M92.7989 27.8884C92.7989 28.0589 92.7959 28.221 92.7901 28.3308C92.7844 28.5038 92.7726 28.6084 92.6907 28.6195C92.6673 28.6249 92.638 28.6277 92.603 28.6304C92.5591 28.6304 92.5445 28.6443 92.5445 28.6577C92.5445 28.6771 92.5619 28.6851 92.6146 28.6851C92.7754 28.6851 92.8982 28.6769 93.0356 28.6769C93.3427 28.6769 93.5618 28.6934 93.9653 28.6934C94.0736 28.6934 94.0937 28.6906 94.1143 28.6193C94.1291 28.5671 94.161 28.3582 94.161 28.251C94.161 28.218 94.158 28.1904 94.1347 28.1904C94.1171 28.1904 94.1055 28.2069 94.0997 28.24C94.0734 28.3663 94.0382 28.4269 93.9563 28.4571C93.8745 28.4873 93.7605 28.4899 93.6846 28.4899C93.3601 28.4899 93.3191 28.446 93.3161 28.2537C93.3131 28.1493 93.3161 27.9872 93.3161 27.8937V27.7041C93.3161 27.6822 93.3191 27.6683 93.3337 27.6683C93.4242 27.6683 93.664 27.6737 93.7459 27.6794C93.8893 27.6876 93.93 27.7343 93.9418 27.8139C93.9448 27.8359 93.9476 27.8552 93.9506 27.8772C93.9563 27.9019 93.9621 27.9211 93.9827 27.9211C94.0003 27.9211 94.0091 27.9048 94.0091 27.8689C94.0091 27.8387 94.0091 27.7041 94.0121 27.6409C94.0211 27.5337 94.0354 27.4348 94.0354 27.4074C94.0354 27.3909 94.0354 27.3744 94.0181 27.3744C94.0033 27.3744 93.9947 27.3854 93.9771 27.4102C93.945 27.4598 93.9068 27.4678 93.7637 27.4733C93.6584 27.4761 93.4216 27.4789 93.3397 27.4761C93.3191 27.4761 93.3163 27.4624 93.3163 27.4433V26.8387C93.3163 26.8194 93.3221 26.8113 93.3397 26.8113C93.4274 26.8113 93.6818 26.8168 93.7782 26.825C93.9184 26.8361 93.9563 26.8718 93.9711 26.935C93.9827 26.9733 93.9857 27.0009 93.9857 27.0313C93.9887 27.0561 94.0005 27.0696 94.0149 27.0696C94.0324 27.0696 94.0442 27.0531 94.0442 27.0313C94.053 26.8883 94.0588 26.7922 94.0674 26.7372C94.0764 26.6574 94.0822 26.6298 94.0822 26.6163C94.0822 26.6024 94.0792 26.5916 94.0646 26.5916C94.053 26.5916 94.0382 26.597 94.0179 26.6024C93.9885 26.6079 93.9184 26.6135 93.8599 26.6135C93.8132 26.6135 93.0969 26.6163 93.0354 26.6163C92.9068 26.6163 92.7664 26.6079 92.5998 26.6079C92.5531 26.6079 92.5353 26.6163 92.5353 26.6327C92.5353 26.6492 92.5501 26.6603 92.588 26.6631C92.6172 26.6659 92.6583 26.6659 92.6845 26.6713C92.7576 26.6879 92.7839 26.7346 92.7897 26.8144C92.7955 26.9022 92.7985 26.9574 92.7985 27.4052V27.8886L92.7989 27.8884Z" stroke="#201E1E" stroke-width="0.288154" stroke-miterlimit="22.9256"/>
<path d="M105.622 26.6711C105.613 26.6024 105.595 26.5639 105.566 26.5639C105.537 26.5639 105.514 26.5913 105.467 26.6628L104.666 27.9925L103.83 26.6763C103.768 26.5913 103.748 26.5637 103.716 26.5637C103.687 26.5637 103.666 26.5885 103.654 26.6709L103.388 28.3608C103.359 28.5423 103.33 28.6053 103.245 28.6218C103.213 28.6273 103.181 28.6273 103.157 28.6301C103.116 28.6301 103.099 28.6412 103.099 28.6575C103.099 28.6849 103.134 28.6849 103.163 28.6849C103.271 28.6849 103.409 28.6766 103.499 28.6766C103.587 28.6766 103.748 28.6849 103.876 28.6849C103.923 28.6849 103.935 28.6766 103.935 28.6547C103.935 28.6382 103.926 28.6299 103.882 28.6299C103.844 28.6271 103.818 28.6245 103.774 28.6162C103.701 28.6023 103.672 28.5695 103.672 28.4897C103.672 28.4486 103.672 28.388 103.683 28.2701L103.768 27.4952C103.824 27.5887 103.952 27.8139 104.002 27.8936C104.113 28.0695 104.291 28.3827 104.394 28.5366C104.476 28.6575 104.493 28.6851 104.525 28.6851C104.549 28.6851 104.566 28.6688 104.645 28.5286L105.247 27.468L105.353 28.4518C105.364 28.5755 105.362 28.592 105.315 28.6084C105.294 28.6138 105.283 28.6249 105.283 28.6357C105.283 28.6496 105.294 28.6662 105.35 28.6688C105.683 28.6851 105.92 28.6851 106.162 28.6851C106.209 28.6851 106.233 28.6797 106.233 28.6577C106.233 28.6384 106.215 28.6303 106.177 28.6303C106.139 28.6275 106.069 28.622 106.01 28.6055C105.914 28.5781 105.885 28.5092 105.861 28.3308L105.622 26.6711H105.622Z" stroke="#201E1E" stroke-width="0.288154" stroke-miterlimit="22.9256"/>
<path d="M115.638 28.1852C115.638 28.2291 115.635 28.3528 115.626 28.4685C115.621 28.548 115.603 28.5976 115.527 28.6169C115.501 28.6252 115.471 28.6252 115.424 28.6306C115.39 28.6306 115.372 28.6417 115.372 28.6554C115.372 28.6747 115.389 28.6856 115.43 28.6856C115.562 28.6856 115.799 28.6773 115.884 28.6773C115.98 28.6773 116.223 28.6856 116.433 28.6856C116.477 28.6856 116.492 28.6747 116.492 28.6608C116.492 28.6417 116.48 28.6334 116.445 28.6306C116.395 28.6252 116.337 28.6252 116.284 28.6141C116.176 28.595 116.17 28.5263 116.165 28.4576C116.156 28.3422 116.156 28.2295 116.156 28.1856V27.9904C116.156 27.9522 116.159 27.8448 116.202 27.7296C116.243 27.6141 116.661 26.9409 116.761 26.8255C116.813 26.7625 116.843 26.7157 116.924 26.6855C116.96 26.6744 117 26.6662 117.039 26.6635C117.077 26.6635 117.097 26.6551 117.097 26.6331C117.097 26.614 117.074 26.6084 117.039 26.6084C116.983 26.6084 116.743 26.6168 116.702 26.6168C116.591 26.6168 116.492 26.6084 116.372 26.6084C116.325 26.6084 116.308 26.6168 116.308 26.6331C116.308 26.6525 116.331 26.6607 116.357 26.6662C116.445 26.6799 116.463 26.7044 116.463 26.7349C116.463 26.7705 116.445 26.8172 116.416 26.8749C116.36 26.9848 116.202 27.2596 116.024 27.5755C115.977 27.4931 115.612 26.8831 115.565 26.8033C115.545 26.7677 115.536 26.7429 115.536 26.7238C115.536 26.7018 115.548 26.6742 115.626 26.6662C115.67 26.6577 115.685 26.6523 115.685 26.6303C115.685 26.614 115.662 26.6084 115.629 26.6084C115.445 26.6084 115.261 26.6168 115.211 26.6168C115.1 26.6168 114.881 26.6084 114.761 26.6084C114.726 26.6084 114.702 26.614 114.702 26.6331C114.702 26.6496 114.717 26.6607 114.746 26.6635C114.77 26.6664 114.805 26.6718 114.822 26.6772C114.916 26.7046 114.948 26.7405 115.059 26.8998C115.159 27.04 115.448 27.4933 115.556 27.6802C115.606 27.7709 115.638 27.8259 115.638 27.9743V28.1858V28.1852Z" stroke="#201E1E" stroke-width="0.288154" stroke-miterlimit="22.9256"/>
</svg>
